<svg width="696" height="698" viewBox="0 0 696 698" fill="none" xmlns="http://www.w3.org/2000/svg">
<g filter="url(#filter0_d)">
<rect x="490.354" y="486.743" width="201.533" height="202.539" fill="#F2F2F2" stroke="black" stroke-width="0.226316"/>
<path d="M560.028 587.169L559.328 590.776H562.33V592.144H559.073L558.182 596.706H556.728L557.62 592.144H554.405L553.535 596.706H552.092L552.941 592.144H550.162V590.776H553.206L553.928 587.169H550.989V585.822H554.161L555.031 581.196H556.506L555.636 585.822H558.871L559.762 581.196H561.184L560.293 585.822H563.094V587.169H560.028ZM554.66 590.776H557.874L558.574 587.169H555.36L554.66 590.776ZM567.602 596.706H565.799V581.196H574.445V582.798H567.602V588.474H574.031V590.076H567.602V596.706ZM586.146 596.706H575.951V595.189L580.035 591.084C581.28 589.825 582.101 588.926 582.497 588.389C582.893 587.851 583.19 587.328 583.388 586.819C583.586 586.31 583.685 585.762 583.685 585.175C583.685 584.347 583.434 583.693 582.932 583.212C582.429 582.724 581.733 582.48 580.842 582.48C580.198 582.48 579.586 582.586 579.006 582.798C578.434 583.01 577.794 583.396 577.086 583.955L576.153 582.756C577.581 581.568 579.137 580.974 580.821 580.974C582.277 580.974 583.42 581.348 584.247 582.098C585.075 582.841 585.488 583.841 585.488 585.1C585.488 586.083 585.212 587.056 584.661 588.018C584.109 588.979 583.077 590.196 581.563 591.667L578.168 594.987V595.072H586.146V596.706ZM591.259 596.706H589.456V581.196H598.102V582.798H591.259V588.474H597.688V590.076H591.259V596.706ZM609.803 596.706H599.608V595.189L603.693 591.084C604.937 589.825 605.758 588.926 606.154 588.389C606.55 587.851 606.847 587.328 607.045 586.819C607.243 586.31 607.342 585.762 607.342 585.175C607.342 584.347 607.091 583.693 606.589 583.212C606.087 582.724 605.39 582.48 604.499 582.48C603.855 582.48 603.244 582.586 602.664 582.798C602.091 583.01 601.451 583.396 600.743 583.955L599.81 582.756C601.238 581.568 602.794 580.974 604.478 580.974C605.935 580.974 607.077 581.348 607.904 582.098C608.732 582.841 609.145 583.841 609.145 585.1C609.145 586.083 608.87 587.056 608.318 588.018C607.766 588.979 606.734 590.196 605.22 591.667L601.826 594.987V595.072H609.803V596.706ZM614.916 596.706H613.113V581.196H621.759V582.798H614.916V588.474H621.345V590.076H614.916V596.706ZM633.46 596.706H623.265V595.189L627.35 591.084C628.594 589.825 629.415 588.926 629.811 588.389C630.207 587.851 630.504 587.328 630.702 586.819C630.9 586.31 630.999 585.762 630.999 585.175C630.999 584.347 630.748 583.693 630.246 583.212C629.744 582.724 629.047 582.48 628.156 582.48C627.512 582.48 626.901 582.586 626.321 582.798C625.748 583.01 625.108 583.396 624.401 583.955L623.467 582.756C624.896 581.568 626.452 580.974 628.135 580.974C629.592 580.974 630.734 581.348 631.561 582.098C632.389 582.841 632.803 583.841 632.803 585.1C632.803 586.083 632.527 587.056 631.975 588.018C631.423 588.979 630.391 590.196 628.877 591.667L625.483 594.987V595.072H633.46V596.706Z" fill="black"/>
<rect x="248.129" y="486.63" width="201.76" height="202.765" fill="#D9D9D9"/>
<path d="M310.978 587.169L310.278 590.776H313.28V592.144H310.023L309.132 596.706H307.679L308.57 592.144H305.356L304.486 596.706H303.043L303.892 592.144H301.112V590.776H304.157L304.878 587.169H301.94V585.822H305.112L305.981 581.196H307.456L306.586 585.822H309.822L310.713 581.196H312.134L311.243 585.822H314.044V587.169H310.978ZM305.61 590.776H308.825L309.525 587.169H306.31L305.61 590.776ZM329.129 588.803C329.129 591.363 328.433 593.322 327.039 594.68C325.653 596.031 323.655 596.706 321.046 596.706H316.749V581.196H321.502C323.913 581.196 325.788 581.865 327.124 583.201C328.461 584.538 329.129 586.405 329.129 588.803ZM327.22 588.866C327.22 586.844 326.711 585.32 325.692 584.294C324.681 583.269 323.174 582.756 321.173 582.756H318.553V595.147H320.749C322.899 595.147 324.515 594.62 325.597 593.566C326.679 592.505 327.22 590.939 327.22 588.866ZM341.722 587.816C341.722 593.884 339.374 596.918 334.678 596.918C333.857 596.918 333.207 596.848 332.726 596.706V595.189C333.291 595.373 333.935 595.465 334.656 595.465C336.354 595.465 337.634 594.941 338.497 593.895C339.367 592.841 339.84 591.228 339.918 589.057H339.791C339.402 589.644 338.886 590.093 338.242 590.405C337.599 590.709 336.874 590.861 336.067 590.861C334.695 590.861 333.606 590.451 332.8 589.63C331.994 588.81 331.591 587.664 331.591 586.193C331.591 584.58 332.04 583.307 332.938 582.374C333.843 581.44 335.031 580.974 336.502 580.974C337.556 580.974 338.476 581.246 339.261 581.79C340.053 582.328 340.661 583.116 341.085 584.156C341.51 585.189 341.722 586.409 341.722 587.816ZM336.502 582.48C335.491 582.48 334.709 582.805 334.158 583.456C333.606 584.107 333.33 585.012 333.33 586.172C333.33 587.19 333.585 587.993 334.094 588.58C334.603 589.16 335.378 589.45 336.417 589.45C337.061 589.45 337.652 589.319 338.189 589.057C338.734 588.796 339.162 588.438 339.473 587.986C339.784 587.533 339.939 587.059 339.939 586.564C339.939 585.822 339.795 585.136 339.505 584.506C339.215 583.877 338.808 583.382 338.285 583.021C337.768 582.66 337.174 582.48 336.502 582.48ZM357.412 588.803C357.412 591.363 356.715 593.322 355.322 594.68C353.936 596.031 351.938 596.706 349.328 596.706H345.032V581.196H349.784C352.196 581.196 354.07 581.865 355.407 583.201C356.743 584.538 357.412 586.405 357.412 588.803ZM355.502 588.866C355.502 586.844 354.993 585.32 353.975 584.294C352.963 583.269 351.457 582.756 349.455 582.756H346.835V595.147H349.031C351.181 595.147 352.797 594.62 353.879 593.566C354.961 592.505 355.502 590.939 355.502 588.866ZM370.004 587.816C370.004 593.884 367.656 596.918 362.96 596.918C362.14 596.918 361.489 596.848 361.008 596.706V595.189C361.574 595.373 362.218 595.465 362.939 595.465C364.636 595.465 365.916 594.941 366.779 593.895C367.649 592.841 368.123 591.228 368.201 589.057H368.073C367.684 589.644 367.168 590.093 366.525 590.405C365.881 590.709 365.156 590.861 364.35 590.861C362.978 590.861 361.889 590.451 361.082 589.63C360.276 588.81 359.873 587.664 359.873 586.193C359.873 584.58 360.322 583.307 361.22 582.374C362.126 581.44 363.314 580.974 364.785 580.974C365.839 580.974 366.758 581.246 367.543 581.79C368.335 582.328 368.943 583.116 369.368 584.156C369.792 585.189 370.004 586.409 370.004 587.816ZM364.785 582.48C363.773 582.48 362.992 582.805 362.44 583.456C361.889 584.107 361.613 585.012 361.613 586.172C361.613 587.19 361.867 587.993 362.377 588.58C362.886 589.16 363.66 589.45 364.7 589.45C365.344 589.45 365.934 589.319 366.472 589.057C367.016 588.796 367.444 588.438 367.755 587.986C368.066 587.533 368.222 587.059 368.222 586.564C368.222 585.822 368.077 585.136 367.787 584.506C367.497 583.877 367.09 583.382 366.567 583.021C366.051 582.66 365.457 582.48 364.785 582.48ZM385.694 588.803C385.694 591.363 384.998 593.322 383.604 594.68C382.218 596.031 380.22 596.706 377.611 596.706H373.314V581.196H378.067C380.478 581.196 382.353 581.865 383.689 583.201C385.026 584.538 385.694 586.405 385.694 588.803ZM383.785 588.866C383.785 586.844 383.276 585.32 382.257 584.294C381.246 583.269 379.739 582.756 377.738 582.756H375.118V595.147H377.314C379.464 595.147 381.08 594.62 382.162 593.566C383.244 592.505 383.785 590.939 383.785 588.866ZM398.287 587.816C398.287 593.884 395.939 596.918 391.243 596.918C390.422 596.918 389.772 596.848 389.291 596.706V595.189C389.856 595.373 390.5 595.465 391.221 595.465C392.919 595.465 394.199 594.941 395.062 593.895C395.932 592.841 396.405 591.228 396.483 589.057H396.356C395.967 589.644 395.451 590.093 394.807 590.405C394.163 590.709 393.439 590.861 392.632 590.861C391.26 590.861 390.171 590.451 389.365 589.63C388.559 588.81 388.155 587.664 388.155 586.193C388.155 584.58 388.605 583.307 389.503 582.374C390.408 581.44 391.596 580.974 393.067 580.974C394.121 580.974 395.04 581.246 395.825 581.79C396.618 582.328 397.226 583.116 397.65 584.156C398.075 585.189 398.287 586.409 398.287 587.816ZM393.067 582.48C392.056 582.48 391.274 582.805 390.723 583.456C390.171 584.107 389.895 585.012 389.895 586.172C389.895 587.19 390.15 587.993 390.659 588.58C391.168 589.16 391.943 589.45 392.982 589.45C393.626 589.45 394.217 589.319 394.754 589.057C395.299 588.796 395.726 588.438 396.038 587.986C396.349 587.533 396.504 587.059 396.504 586.564C396.504 585.822 396.359 585.136 396.069 584.506C395.78 583.877 395.373 583.382 394.85 583.021C394.333 582.66 393.739 582.48 393.067 582.48Z" fill="black"/>
<rect x="4" y="486.63" width="201.76" height="202.764" fill="#4F4F4F"/>
<path d="M73.787 587.169L73.0868 590.776H76.089V592.144H72.8322L71.9411 596.706H70.4877L71.3788 592.144H68.1644L67.2945 596.706H65.8518L66.7005 592.144H63.921V590.776H66.9657L67.6871 587.169H64.7485V585.822H67.9204L68.7903 581.196H70.2649L69.395 585.822H72.6306L73.5218 581.196H74.9433L74.0522 585.822H76.8529V587.169H73.787ZM68.419 590.776H71.6334L72.3336 587.169H69.1192L68.419 590.776ZM89.4134 593.142H87.1114V596.706H85.4246V593.142H77.8819V591.603L85.2443 581.111H87.1114V591.54H89.4134V593.142ZM85.4246 591.54V586.384C85.4246 585.373 85.46 584.23 85.5307 582.957H85.4458C85.1063 583.636 84.7881 584.199 84.491 584.644L79.6429 591.54H85.4246ZM93.7948 596.706H91.9913V581.196H100.637V582.798H93.7948V588.474H100.224V590.076H93.7948V596.706ZM113.071 593.142H110.768V596.706H109.082V593.142H101.539V591.603L108.901 581.111H110.768V591.54H113.071V593.142ZM109.082 591.54V586.384C109.082 585.373 109.117 584.23 109.188 582.957H109.103C108.763 583.636 108.445 584.199 108.148 584.644L103.3 591.54H109.082ZM117.452 596.706H115.648V581.196H124.294V582.798H117.452V588.474H123.881V590.076H117.452V596.706ZM136.728 593.142H134.426V596.706H132.739V593.142H125.196V591.603L132.559 581.111H134.426V591.54H136.728V593.142ZM132.739 591.54V586.384C132.739 585.373 132.774 584.23 132.845 582.957H132.76C132.421 583.636 132.102 584.199 131.805 584.644L126.957 591.54H132.739ZM141.109 596.706H139.306V581.196H147.952V582.798H141.109V588.474H147.538V590.076H141.109V596.706Z" fill="white"/>
<rect x="490.241" y="243.315" width="201.76" height="202.763" fill="#EE8A0A"/>
<path d="M557.238 343.856L556.537 347.463H559.54V348.832H556.283L555.392 353.394H553.938L554.829 348.832H551.615L550.745 353.394H549.302L550.151 348.832H547.372V347.463H550.416L551.138 343.856H548.199V342.509H551.371L552.241 337.884H553.716L552.846 342.509H556.081L556.972 337.884H558.394L557.503 342.509H560.303V343.856H557.238ZM551.87 347.463H555.084L555.784 343.856H552.57L551.87 347.463ZM571.655 353.394H563.009V337.884H571.655V339.486H564.812V344.482H571.241V346.074H564.812V351.781H571.655V353.394ZM583.748 353.394H575.102V337.884H583.748V339.486H576.906V344.482H583.335V346.074H576.906V351.781H583.748V353.394ZM591.259 337.661C592.674 337.661 593.795 337.99 594.622 338.648C595.45 339.305 595.863 340.214 595.863 341.374C595.863 342.138 595.626 342.834 595.153 343.464C594.679 344.093 593.922 344.666 592.882 345.183C594.141 345.784 595.036 346.417 595.566 347.081C596.097 347.739 596.362 348.503 596.362 349.373C596.362 350.66 595.913 351.689 595.015 352.46C594.117 353.224 592.886 353.606 591.323 353.606C589.668 353.606 588.395 353.245 587.504 352.524C586.613 351.795 586.167 350.766 586.167 349.437C586.167 347.661 587.249 346.279 589.413 345.289C588.437 344.737 587.737 344.143 587.313 343.506C586.889 342.863 586.676 342.145 586.676 341.353C586.676 340.228 587.09 339.334 587.918 338.669C588.752 337.997 589.866 337.661 591.259 337.661ZM587.907 349.479C587.907 350.328 588.2 350.989 588.787 351.463C589.382 351.937 590.213 352.174 591.28 352.174C592.334 352.174 593.155 351.926 593.742 351.431C594.329 350.936 594.622 350.257 594.622 349.394C594.622 348.708 594.346 348.1 593.795 347.569C593.243 347.032 592.281 346.512 590.909 346.01C589.855 346.463 589.092 346.965 588.618 347.516C588.144 348.061 587.907 348.715 587.907 349.479ZM591.238 339.093C590.354 339.093 589.661 339.305 589.159 339.73C588.657 340.154 588.406 340.72 588.406 341.427C588.406 342.078 588.614 342.636 589.031 343.103C589.449 343.57 590.22 344.037 591.344 344.504C592.355 344.079 593.07 343.623 593.487 343.135C593.911 342.647 594.124 342.078 594.124 341.427C594.124 340.713 593.865 340.147 593.349 339.73C592.84 339.305 592.136 339.093 591.238 339.093ZM609.379 353.394L607.448 348.461H601.231L599.322 353.394H597.497L603.629 337.82H605.146L611.246 353.394H609.379ZM606.886 346.837L605.082 342.032C604.849 341.424 604.608 340.677 604.361 339.793C604.205 340.472 603.983 341.218 603.693 342.032L601.868 346.837H606.886ZM622.586 345.617C622.586 348.298 622.162 350.299 621.313 351.622C620.472 352.944 619.181 353.606 617.441 353.606C615.772 353.606 614.503 352.93 613.633 351.579C612.763 350.222 612.328 348.234 612.328 345.617C612.328 342.916 612.749 340.911 613.59 339.602C614.432 338.294 615.716 337.64 617.441 337.64C619.124 337.64 620.401 338.322 621.271 339.687C622.148 341.052 622.586 343.029 622.586 345.617ZM614.11 345.617C614.11 347.874 614.375 349.518 614.906 350.55C615.436 351.576 616.281 352.089 617.441 352.089C618.615 352.089 619.464 351.569 619.987 350.529C620.518 349.483 620.783 347.845 620.783 345.617C620.783 343.39 620.518 341.759 619.987 340.727C619.464 339.687 618.615 339.167 617.441 339.167C616.281 339.167 615.436 339.68 614.906 340.706C614.375 341.724 614.11 343.361 614.11 345.617ZM635.561 353.394L633.63 348.461H627.413L625.504 353.394H623.679L629.811 337.82H631.328L637.428 353.394H635.561ZM633.068 346.837L631.264 342.032C631.031 341.424 630.79 340.677 630.543 339.793C630.387 340.472 630.164 341.218 629.875 342.032L628.05 346.837H633.068Z" fill="white"/>
<rect x="248.129" y="243.315" width="201.76" height="202.763" fill="#FFDB58"/>
<path d="M313.767 343.856L313.067 347.463H316.069V348.832H312.812L311.921 353.394H310.468L311.359 348.832H308.145L307.275 353.394H305.832L306.681 348.832H303.901V347.463H306.946L307.667 343.856H304.729V342.509H307.901L308.77 337.884H310.245L309.375 342.509H312.611L313.502 337.884H314.923L314.032 342.509H316.833V343.856H313.767ZM308.399 347.463H311.614L312.314 343.856H309.099L308.399 347.463ZM321.342 353.394H319.538V337.884H328.184V339.486H321.342V345.161H327.77V346.763H321.342V353.394ZM332.566 353.394H330.762V337.884H339.408V339.486H332.566V345.161H338.994V346.763H332.566V353.394ZM354.366 345.49C354.366 348.05 353.67 350.009 352.276 351.367C350.89 352.718 348.892 353.394 346.282 353.394H341.986V337.884H346.739C349.15 337.884 351.024 338.552 352.361 339.889C353.698 341.226 354.366 343.093 354.366 345.49ZM352.457 345.554C352.457 343.531 351.947 342.007 350.929 340.982C349.918 339.956 348.411 339.443 346.41 339.443H343.789V351.834H345.985C348.135 351.834 349.751 351.307 350.833 350.253C351.916 349.193 352.457 347.626 352.457 345.554ZM357.835 337.884H362.216C364.275 337.884 365.763 338.191 366.683 338.807C367.602 339.422 368.062 340.395 368.062 341.724C368.062 342.644 367.804 343.404 367.287 344.005C366.778 344.599 366.032 344.984 365.049 345.161V345.267C367.404 345.671 368.582 346.908 368.582 348.98C368.582 350.367 368.111 351.449 367.171 352.227C366.237 353.005 364.929 353.394 363.246 353.394H357.835V337.884ZM359.639 344.525H362.609C363.882 344.525 364.798 344.327 365.357 343.931C365.915 343.528 366.195 342.852 366.195 341.904C366.195 341.035 365.884 340.409 365.261 340.027C364.639 339.638 363.649 339.443 362.291 339.443H359.639V344.525ZM359.639 346.052V351.855H362.874C364.126 351.855 365.067 351.615 365.696 351.134C366.333 350.646 366.651 349.886 366.651 348.853C366.651 347.891 366.326 347.184 365.675 346.731C365.031 346.279 364.048 346.052 362.726 346.052H359.639ZM375.7 343.92C377.334 343.92 378.617 344.327 379.551 345.14C380.492 345.946 380.962 347.053 380.962 348.461C380.962 350.066 380.449 351.325 379.424 352.237C378.405 353.15 376.998 353.606 375.201 353.606C373.455 353.606 372.121 353.326 371.202 352.768V351.07C371.697 351.389 372.312 351.64 373.048 351.823C373.783 352 374.508 352.089 375.223 352.089C376.467 352.089 377.433 351.795 378.119 351.208C378.812 350.621 379.158 349.772 379.158 348.662C379.158 346.498 377.832 345.416 375.18 345.416C374.508 345.416 373.61 345.518 372.486 345.724L371.573 345.14L372.157 337.884H379.869V339.507H373.663L373.271 344.164C374.084 344.001 374.894 343.92 375.7 343.92ZM388.42 337.661C389.834 337.661 390.955 337.99 391.783 338.648C392.61 339.305 393.024 340.214 393.024 341.374C393.024 342.138 392.787 342.834 392.313 343.464C391.839 344.093 391.082 344.666 390.043 345.183C391.302 345.784 392.196 346.417 392.727 347.081C393.257 347.739 393.522 348.503 393.522 349.373C393.522 350.66 393.073 351.689 392.175 352.46C391.277 353.224 390.046 353.606 388.483 353.606C386.828 353.606 385.555 353.245 384.664 352.524C383.773 351.795 383.328 350.766 383.328 349.437C383.328 347.661 384.41 346.279 386.574 345.289C385.598 344.737 384.898 344.143 384.473 343.506C384.049 342.863 383.837 342.145 383.837 341.353C383.837 340.228 384.251 339.334 385.078 338.669C385.913 337.997 387.026 337.661 388.42 337.661ZM385.067 349.479C385.067 350.328 385.361 350.989 385.948 351.463C386.542 351.937 387.373 352.174 388.441 352.174C389.495 352.174 390.315 351.926 390.902 351.431C391.489 350.936 391.783 350.257 391.783 349.394C391.783 348.708 391.507 348.1 390.955 347.569C390.403 347.032 389.442 346.512 388.07 346.01C387.016 346.463 386.252 346.965 385.778 347.516C385.304 348.061 385.067 348.715 385.067 349.479ZM388.398 339.093C387.514 339.093 386.821 339.305 386.319 339.73C385.817 340.154 385.566 340.72 385.566 341.427C385.566 342.078 385.775 342.636 386.192 343.103C386.609 343.57 387.38 344.037 388.505 344.504C389.516 344.079 390.23 343.623 390.647 343.135C391.072 342.647 391.284 342.078 391.284 341.427C391.284 340.713 391.026 340.147 390.51 339.73C390 339.305 389.297 339.093 388.398 339.093Z" fill="black"/>
<rect x="4" y="243.316" width="201.76" height="202.764" fill="#56CCF2"/>
<path d="M71.3046 343.857L70.6044 347.464H73.6066V348.832H70.3498L69.4587 353.394H68.0053L68.8964 348.832H65.682L64.8121 353.394H63.3693L64.218 348.832H61.4386V347.464H64.4832L65.2046 343.857H62.2661V342.51H65.438L66.3079 337.884H67.7825L66.9126 342.51H70.1482L71.0393 337.884H72.4609L71.5698 342.51H74.3704V343.857H71.3046ZM65.9366 347.464H69.151L69.8512 343.857H66.6368L65.9366 347.464ZM80.8523 343.921C82.486 343.921 83.7696 344.327 84.7032 345.141C85.6438 345.947 86.1141 347.054 86.1141 348.461C86.1141 350.066 85.6014 351.325 84.5759 352.238C83.5575 353.15 82.1501 353.606 80.3537 353.606C78.6068 353.606 77.2737 353.327 76.3542 352.768V351.071C76.8493 351.389 77.4646 351.64 78.2001 351.824C78.9357 352.001 79.6606 352.089 80.3749 352.089C81.6196 352.089 82.585 351.796 83.271 351.209C83.9641 350.622 84.3107 349.773 84.3107 348.663C84.3107 346.498 82.9846 345.416 80.3325 345.416C79.6606 345.416 78.7624 345.519 77.6379 345.724L76.7255 345.141L77.309 337.884H85.0215V339.507H78.8154L78.4229 344.165C79.2362 344.002 80.046 343.921 80.8523 343.921ZM88.6178 346.764C88.6178 343.715 89.2083 341.438 90.3894 339.932C91.5776 338.418 93.3315 337.662 95.6513 337.662C96.4504 337.662 97.0799 337.729 97.5396 337.863V339.38C96.995 339.203 96.3726 339.115 95.6725 339.115C94.0105 339.115 92.741 339.635 91.864 340.674C90.987 341.707 90.5061 343.334 90.4212 345.554H90.5485C91.3265 344.338 92.5571 343.73 94.2403 343.73C95.6336 343.73 96.7298 344.15 97.529 344.992C98.3352 345.834 98.7383 346.976 98.7383 348.419C98.7383 350.031 98.2963 351.301 97.4123 352.227C96.5353 353.147 95.3471 353.606 93.8478 353.606C92.2424 353.606 90.9693 353.005 90.0287 351.803C89.0881 350.593 88.6178 348.914 88.6178 346.764ZM93.8266 352.11C94.8309 352.11 95.6088 351.796 96.1605 351.166C96.7192 350.53 96.9985 349.614 96.9985 348.419C96.9985 347.393 96.7404 346.587 96.2241 346C95.7078 345.413 94.9369 345.119 93.9114 345.119C93.2749 345.119 92.6915 345.25 92.161 345.512C91.6306 345.774 91.2063 346.134 90.888 346.594C90.5768 347.054 90.4212 347.531 90.4212 348.026C90.4212 348.755 90.5627 349.434 90.8456 350.063C91.1285 350.692 91.5281 351.191 92.0443 351.559C92.5677 351.927 93.1618 352.11 93.8266 352.11ZM108.583 339.274C106.879 339.274 105.531 339.843 104.541 340.982C103.558 342.114 103.067 343.666 103.067 345.639C103.067 347.669 103.541 349.239 104.488 350.349C105.443 351.453 106.801 352.004 108.562 352.004C109.644 352.004 110.878 351.81 112.264 351.421V353.002C111.189 353.405 109.863 353.606 108.286 353.606C106.002 353.606 104.237 352.913 102.992 351.527C101.755 350.141 101.136 348.171 101.136 345.618C101.136 344.02 101.433 342.619 102.027 341.417C102.628 340.215 103.491 339.288 104.616 338.638C105.747 337.987 107.077 337.662 108.604 337.662C110.231 337.662 111.653 337.959 112.869 338.553L112.105 340.101C110.931 339.55 109.757 339.274 108.583 339.274ZM122.289 339.274C120.585 339.274 119.238 339.843 118.248 340.982C117.264 342.114 116.773 343.666 116.773 345.639C116.773 347.669 117.247 349.239 118.194 350.349C119.149 351.453 120.507 352.004 122.268 352.004C123.35 352.004 124.584 351.81 125.971 351.421V353.002C124.896 353.405 123.569 353.606 121.992 353.606C119.708 353.606 117.943 352.913 116.699 351.527C115.461 350.141 114.842 348.171 114.842 345.618C114.842 344.02 115.139 342.619 115.733 341.417C116.334 340.215 117.197 339.288 118.322 338.638C119.453 337.987 120.783 337.662 122.311 337.662C123.937 337.662 125.359 337.959 126.575 338.553L125.811 340.101C124.637 339.55 123.463 339.274 122.289 339.274ZM131.158 353.394H129.355V337.884H138.001V339.486H131.158V345.162H137.587V346.764H131.158V353.394ZM149.702 353.394H139.507V351.877L143.591 347.771C144.836 346.513 145.657 345.614 146.053 345.077C146.449 344.539 146.746 344.016 146.944 343.507C147.142 342.998 147.241 342.45 147.241 341.863C147.241 341.035 146.99 340.381 146.488 339.9C145.985 339.412 145.289 339.168 144.398 339.168C143.754 339.168 143.142 339.274 142.562 339.486C141.99 339.698 141.349 340.084 140.642 340.643L139.709 339.444C141.137 338.256 142.693 337.662 144.376 337.662C145.833 337.662 146.976 338.036 147.803 338.786C148.631 339.529 149.044 340.529 149.044 341.788C149.044 342.771 148.768 343.744 148.217 344.706C147.665 345.667 146.633 346.884 145.119 348.355L141.724 351.675V351.76H149.702V353.394Z" fill="white"/>
<rect x="490.241" width="201.76" height="202.762" fill="#DA5C26"/>
<path d="M554.203 100.54L553.502 104.147H556.505V105.515H553.248L552.357 110.077H550.903L551.794 105.515H548.58L547.71 110.077H546.267L547.116 105.515H544.337V104.147H547.381L548.103 100.54H545.164V99.1927H548.336L549.206 94.5674H550.681L549.811 99.1927H553.046L553.937 94.5674H555.359L554.468 99.1927H557.268V100.54H554.203ZM548.835 104.147H552.049L552.749 100.54H549.535L548.835 104.147ZM572.354 102.174C572.354 104.734 571.657 106.693 570.264 108.051C568.878 109.402 566.88 110.077 564.27 110.077H559.974V94.5674H564.726C567.138 94.5674 569.012 95.2357 570.349 96.5724C571.686 97.9091 572.354 99.7762 572.354 102.174ZM570.444 102.237C570.444 100.215 569.935 98.6906 568.917 97.6651C567.905 96.6396 566.399 96.1269 564.397 96.1269H561.777V108.518H563.973C566.123 108.518 567.739 107.991 568.821 106.937C569.903 105.876 570.444 104.31 570.444 102.237ZM585.572 110.077L583.641 105.144H577.425L575.515 110.077H573.691L579.822 94.5038H581.339L587.439 110.077H585.572ZM583.079 103.521L581.276 98.7154C581.042 98.1071 580.802 97.361 580.554 96.4769C580.399 97.1559 580.176 97.902 579.886 98.7154L578.061 103.521H583.079ZM593.348 100.604C594.982 100.604 596.266 101.01 597.199 101.824C598.14 102.63 598.61 103.737 598.61 105.144C598.61 106.75 598.097 108.008 597.072 108.921C596.053 109.833 594.646 110.289 592.85 110.289C591.103 110.289 589.77 110.01 588.85 109.451V107.754C589.345 108.072 589.961 108.323 590.696 108.507C591.432 108.684 592.157 108.772 592.871 108.772C594.116 108.772 595.081 108.479 595.767 107.892C596.46 107.305 596.807 106.456 596.807 105.346C596.807 103.182 595.481 102.099 592.828 102.099C592.157 102.099 591.258 102.202 590.134 102.407L589.222 101.824L589.805 94.5674H597.517V96.1905H591.311L590.919 100.848C591.732 100.685 592.542 100.604 593.348 100.604ZM608.646 95.9571C606.941 95.9571 605.594 96.5265 604.604 97.6651C603.621 98.7967 603.129 100.349 603.129 102.322C603.129 104.352 603.603 105.922 604.551 107.032C605.506 108.136 606.864 108.687 608.625 108.687C609.707 108.687 610.941 108.493 612.327 108.104V109.685C611.252 110.088 609.926 110.289 608.349 110.289C606.064 110.289 604.3 109.596 603.055 108.21C601.817 106.824 601.199 104.854 601.199 102.301C601.199 100.703 601.496 99.3024 602.09 98.1001C602.691 96.8978 603.554 95.9713 604.678 95.3206C605.81 94.67 607.139 94.3446 608.667 94.3446C610.294 94.3446 611.715 94.6417 612.932 95.2357L612.168 96.7846C610.994 96.233 609.82 95.9571 608.646 95.9571ZM624.835 110.077H614.64V108.56L618.724 104.455C619.969 103.196 620.789 102.298 621.185 101.76C621.581 101.223 621.878 100.699 622.076 100.19C622.274 99.6807 622.373 99.1326 622.373 98.5456C622.373 97.7182 622.122 97.064 621.62 96.583C621.118 96.095 620.421 95.851 619.53 95.851C618.887 95.851 618.275 95.9571 617.695 96.1693C617.122 96.3815 616.482 96.7669 615.775 97.3256L614.841 96.1269C616.27 94.9387 617.826 94.3446 619.509 94.3446C620.966 94.3446 622.108 94.7195 622.936 95.4691C623.763 96.2117 624.177 97.2125 624.177 98.4714C624.177 99.4544 623.901 100.427 623.349 101.389C622.798 102.351 621.765 103.567 620.252 105.038L616.857 108.359V108.443H624.835V110.077ZM627.253 103.447C627.253 100.399 627.844 98.1213 629.025 96.6149C630.213 95.1014 631.967 94.3446 634.287 94.3446C635.086 94.3446 635.715 94.4118 636.175 94.5462V96.0632C635.631 95.8864 635.008 95.798 634.308 95.798C632.646 95.798 631.376 96.3178 630.499 97.3575C629.623 98.39 629.142 100.017 629.057 102.237H629.184C629.962 101.021 631.193 100.413 632.876 100.413C634.269 100.413 635.365 100.834 636.164 101.675C636.971 102.517 637.374 103.659 637.374 105.102C637.374 106.714 636.932 107.984 636.048 108.91C635.171 109.83 633.983 110.289 632.483 110.289C630.878 110.289 629.605 109.688 628.664 108.486C627.724 107.276 627.253 105.597 627.253 103.447ZM632.462 108.794C633.466 108.794 634.244 108.479 634.796 107.849C635.355 107.213 635.634 106.297 635.634 105.102C635.634 104.076 635.376 103.27 634.86 102.683C634.343 102.096 633.572 101.802 632.547 101.802C631.91 101.802 631.327 101.933 630.797 102.195C630.266 102.457 629.842 102.817 629.523 103.277C629.212 103.737 629.057 104.214 629.057 104.709C629.057 105.438 629.198 106.117 629.481 106.746C629.764 107.375 630.164 107.874 630.68 108.242C631.203 108.61 631.797 108.794 632.462 108.794Z" fill="white"/>
<rect x="248.129" width="201.76" height="202.762" fill="#333333"/>
<path d="M315.093 100.54L314.393 104.147H317.395V105.515H314.138L313.247 110.077H311.794L312.685 105.515H309.471L308.601 110.077H307.158L308.007 105.515H305.227V104.147H308.272L308.993 100.54H306.055V99.1927H309.227L310.097 94.5674H311.571L310.701 99.1927H313.937L314.828 94.5674H316.25L315.358 99.1927H318.159V100.54H315.093ZM309.725 104.147H312.94L313.64 100.54H310.425L309.725 104.147ZM329.404 98.2168C329.404 99.2069 329.125 100.017 328.566 100.646C328.014 101.276 327.229 101.696 326.211 101.909V101.993C327.456 102.149 328.379 102.545 328.98 103.182C329.581 103.818 329.882 104.653 329.882 105.685C329.882 107.163 329.369 108.302 328.343 109.101C327.318 109.893 325.861 110.289 323.973 110.289C323.152 110.289 322.399 110.226 321.713 110.098C321.034 109.978 320.373 109.762 319.729 109.451V107.775C320.401 108.107 321.115 108.362 321.872 108.539C322.636 108.709 323.357 108.794 324.036 108.794C326.717 108.794 328.057 107.743 328.057 105.643C328.057 103.762 326.579 102.821 323.623 102.821H322.095V101.304H323.644C324.853 101.304 325.811 101.039 326.519 100.508C327.226 99.9707 327.58 99.2281 327.58 98.2804C327.58 97.5237 327.318 96.9296 326.794 96.4982C326.278 96.0668 325.574 95.851 324.683 95.851C324.004 95.851 323.364 95.943 322.763 96.1269C322.162 96.3107 321.476 96.6502 320.705 97.1453L319.814 95.9571C320.451 95.455 321.183 95.0625 322.01 94.7796C322.845 94.4896 323.722 94.3446 324.641 94.3446C326.147 94.3446 327.318 94.6912 328.152 95.3843C328.987 96.0703 329.404 97.0145 329.404 98.2168ZM341.837 98.2168C341.837 99.2069 341.558 100.017 340.999 100.646C340.448 101.276 339.663 101.696 338.644 101.909V101.993C339.889 102.149 340.812 102.545 341.413 103.182C342.014 103.818 342.315 104.653 342.315 105.685C342.315 107.163 341.802 108.302 340.777 109.101C339.751 109.893 338.294 110.289 336.406 110.289C335.585 110.289 334.832 110.226 334.146 110.098C333.467 109.978 332.806 109.762 332.162 109.451V107.775C332.834 108.107 333.549 108.362 334.305 108.539C335.069 108.709 335.791 108.794 336.469 108.794C339.15 108.794 340.49 107.743 340.49 105.643C340.49 103.762 339.012 102.821 336.056 102.821H334.528V101.304H336.077C337.286 101.304 338.245 101.039 338.952 100.508C339.659 99.9707 340.013 99.2281 340.013 98.2804C340.013 97.5237 339.751 96.9296 339.228 96.4982C338.711 96.0668 338.008 95.851 337.117 95.851C336.438 95.851 335.798 95.943 335.196 96.1269C334.595 96.3107 333.909 96.6502 333.138 97.1453L332.247 95.9571C332.884 95.455 333.616 95.0625 334.443 94.7796C335.278 94.4896 336.155 94.3446 337.074 94.3446C338.581 94.3446 339.751 94.6912 340.586 95.3843C341.42 96.0703 341.837 97.0145 341.837 98.2168ZM354.271 98.2168C354.271 99.2069 353.991 100.017 353.433 100.646C352.881 101.276 352.096 101.696 351.078 101.909V101.993C352.322 102.149 353.245 102.545 353.846 103.182C354.448 103.818 354.748 104.653 354.748 105.685C354.748 107.163 354.235 108.302 353.21 109.101C352.184 109.893 350.727 110.289 348.839 110.289C348.019 110.289 347.265 110.226 346.579 110.098C345.901 109.978 345.239 109.762 344.596 109.451V107.775C345.268 108.107 345.982 108.362 346.739 108.539C347.502 108.709 348.224 108.794 348.903 108.794C351.583 108.794 352.923 107.743 352.923 105.643C352.923 103.762 351.445 102.821 348.489 102.821H346.961V101.304H348.51C349.72 101.304 350.678 101.039 351.385 100.508C352.092 99.9707 352.446 99.2281 352.446 98.2804C352.446 97.5237 352.184 96.9296 351.661 96.4982C351.145 96.0668 350.441 95.851 349.55 95.851C348.871 95.851 348.231 95.943 347.63 96.1269C347.029 96.3107 346.343 96.6502 345.572 97.1453L344.681 95.9571C345.317 95.455 346.049 95.0625 346.877 94.7796C347.711 94.4896 348.588 94.3446 349.507 94.3446C351.014 94.3446 352.184 94.6912 353.019 95.3843C353.853 96.0703 354.271 97.0145 354.271 98.2168ZM366.704 98.2168C366.704 99.2069 366.425 100.017 365.866 100.646C365.314 101.276 364.529 101.696 363.511 101.909V101.993C364.756 102.149 365.678 102.545 366.28 103.182C366.881 103.818 367.181 104.653 367.181 105.685C367.181 107.163 366.669 108.302 365.643 109.101C364.618 109.893 363.161 110.289 361.272 110.289C360.452 110.289 359.699 110.226 359.013 110.098C358.334 109.978 357.673 109.762 357.029 109.451V107.775C357.701 108.107 358.415 108.362 359.172 108.539C359.936 108.709 360.657 108.794 361.336 108.794C364.016 108.794 365.357 107.743 365.357 105.643C365.357 103.762 363.879 102.821 360.922 102.821H359.395V101.304H360.943C362.153 101.304 363.111 101.039 363.818 100.508C364.526 99.9707 364.879 99.2281 364.879 98.2804C364.879 97.5237 364.618 96.9296 364.094 96.4982C363.578 96.0668 362.874 95.851 361.983 95.851C361.304 95.851 360.664 95.943 360.063 96.1269C359.462 96.3107 358.776 96.6502 358.005 97.1453L357.114 95.9571C357.75 95.455 358.482 95.0625 359.31 94.7796C360.144 94.4896 361.021 94.3446 361.941 94.3446C363.447 94.3446 364.618 94.6912 365.452 95.3843C366.287 96.0703 366.704 97.0145 366.704 98.2168ZM379.137 98.2168C379.137 99.2069 378.858 100.017 378.299 100.646C377.747 101.276 376.962 101.696 375.944 101.909V101.993C377.189 102.149 378.112 102.545 378.713 103.182C379.314 103.818 379.615 104.653 379.615 105.685C379.615 107.163 379.102 108.302 378.076 109.101C377.051 109.893 375.594 110.289 373.706 110.289C372.885 110.289 372.132 110.226 371.446 110.098C370.767 109.978 370.106 109.762 369.462 109.451V107.775C370.134 108.107 370.848 108.362 371.605 108.539C372.369 108.709 373.09 108.794 373.769 108.794C376.45 108.794 377.79 107.743 377.79 105.643C377.79 103.762 376.312 102.821 373.356 102.821H371.828V101.304H373.377C374.586 101.304 375.544 101.039 376.252 100.508C376.959 99.9707 377.313 99.2281 377.313 98.2804C377.313 97.5237 377.051 96.9296 376.527 96.4982C376.011 96.0668 375.308 95.851 374.416 95.851C373.737 95.851 373.097 95.943 372.496 96.1269C371.895 96.3107 371.209 96.6502 370.438 97.1453L369.547 95.9571C370.184 95.455 370.916 95.0625 371.743 94.7796C372.578 94.4896 373.455 94.3446 374.374 94.3446C375.88 94.3446 377.051 94.6912 377.885 95.3843C378.72 96.0703 379.137 97.0145 379.137 98.2168ZM391.57 98.2168C391.57 99.2069 391.291 100.017 390.732 100.646C390.181 101.276 389.396 101.696 388.377 101.909V101.993C389.622 102.149 390.545 102.545 391.146 103.182C391.747 103.818 392.048 104.653 392.048 105.685C392.048 107.163 391.535 108.302 390.51 109.101C389.484 109.893 388.027 110.289 386.139 110.289C385.318 110.289 384.565 110.226 383.879 110.098C383.2 109.978 382.539 109.762 381.895 109.451V107.775C382.567 108.107 383.282 108.362 384.038 108.539C384.802 108.709 385.524 108.794 386.203 108.794C388.883 108.794 390.223 107.743 390.223 105.643C390.223 103.762 388.745 102.821 385.789 102.821H384.261V101.304H385.81C387.019 101.304 387.978 101.039 388.685 100.508C389.392 99.9707 389.746 99.2281 389.746 98.2804C389.746 97.5237 389.484 96.9296 388.961 96.4982C388.444 96.0668 387.741 95.851 386.85 95.851C386.171 95.851 385.531 95.943 384.929 96.1269C384.328 96.3107 383.642 96.6502 382.871 97.1453L381.98 95.9571C382.617 95.455 383.349 95.0625 384.176 94.7796C385.011 94.4896 385.888 94.3446 386.807 94.3446C388.314 94.3446 389.484 94.6912 390.319 95.3843C391.153 96.0703 391.57 97.0145 391.57 98.2168Z" fill="white"/>
<rect x="4" width="201.76" height="202.762" fill="#077294"/>
<path d="M70.9641 100.54L70.2639 104.147H73.2662V105.515H70.0093L69.1182 110.077H67.6648L68.556 105.515H65.3416L64.4717 110.077H63.0289L63.8776 105.515H61.0981V104.147H64.1428L64.8642 100.54H61.9256V99.1927H65.0976L65.9675 94.5674H67.4421L66.5722 99.1927H69.8078L70.6989 94.5674H72.1204L71.2293 99.1927H74.03V100.54H70.9641ZM65.5962 104.147H68.8106L69.5107 100.54H66.2963L65.5962 104.147ZM85.9434 102.301C85.9434 104.981 85.5191 106.983 84.6704 108.306C83.8288 109.628 82.5381 110.289 80.7983 110.289C79.1292 110.289 77.8597 109.614 76.9898 108.263C76.1199 106.905 75.6849 104.918 75.6849 102.301C75.6849 99.5994 76.1057 97.5944 76.9473 96.286C77.789 94.9776 79.0726 94.3234 80.7983 94.3234C82.4815 94.3234 83.7581 95.0059 84.628 96.3709C85.5049 97.7358 85.9434 99.7126 85.9434 102.301ZM77.4672 102.301C77.4672 104.557 77.7324 106.201 78.2628 107.234C78.7932 108.26 79.6384 108.772 80.7983 108.772C81.9723 108.772 82.821 108.252 83.3443 107.213C83.8748 106.166 84.14 104.529 84.14 102.301C84.14 100.073 83.8748 98.4431 83.3443 97.4105C82.821 96.3709 81.9723 95.851 80.7983 95.851C79.6384 95.851 78.7932 96.3638 78.2628 97.3893C77.7324 98.4077 77.4672 100.045 77.4672 102.301ZM90.0596 110.077L96.4884 96.1905H88.0333V94.5674H98.3555V95.9783L92.0115 110.077H90.0596ZM102.493 110.077L108.922 96.1905H100.467V94.5674H110.789V95.9783L104.445 110.077H102.493ZM123.158 110.077H112.963V108.56L117.048 104.455C118.293 103.196 119.113 102.298 119.509 101.76C119.905 101.223 120.202 100.699 120.4 100.19C120.598 99.6807 120.697 99.1326 120.697 98.5456C120.697 97.7182 120.446 97.064 119.944 96.583C119.442 96.095 118.745 95.851 117.854 95.851C117.21 95.851 116.599 95.9571 116.019 96.1693C115.446 96.3815 114.806 96.7669 114.099 97.3256L113.165 96.1269C114.594 94.9387 116.15 94.3446 117.833 94.3446C119.29 94.3446 120.432 94.7195 121.259 95.4691C122.087 96.2117 122.501 97.2125 122.501 98.4714C122.501 99.4544 122.225 100.427 121.673 101.389C121.121 102.351 120.089 103.567 118.575 105.038L115.181 108.359V108.443H123.158V110.077ZM135.592 101.187C135.592 107.255 133.244 110.289 128.547 110.289C127.727 110.289 127.076 110.219 126.596 110.077V108.56C127.161 108.744 127.805 108.836 128.526 108.836C130.224 108.836 131.504 108.313 132.367 107.266C133.236 106.212 133.71 104.6 133.788 102.428H133.661C133.272 103.015 132.756 103.464 132.112 103.776C131.468 104.08 130.743 104.232 129.937 104.232C128.565 104.232 127.476 103.822 126.67 103.001C125.864 102.181 125.46 101.035 125.46 99.564C125.46 97.9515 125.909 96.6785 126.808 95.745C127.713 94.8114 128.901 94.3446 130.372 94.3446C131.426 94.3446 132.345 94.6169 133.13 95.1615C133.922 95.699 134.531 96.4876 134.955 97.5272C135.379 98.5598 135.592 99.7798 135.592 101.187ZM130.372 95.851C129.361 95.851 128.579 96.1764 128.028 96.827C127.476 97.4777 127.2 98.383 127.2 99.5428C127.2 100.561 127.455 101.364 127.964 101.951C128.473 102.531 129.248 102.821 130.287 102.821C130.931 102.821 131.521 102.69 132.059 102.428C132.603 102.167 133.031 101.81 133.343 101.357C133.654 100.904 133.809 100.43 133.809 99.9353C133.809 99.1927 133.664 98.5067 133.374 97.8773C133.084 97.2478 132.678 96.7528 132.154 96.3921C131.638 96.0314 131.044 95.851 130.372 95.851ZM148.757 106.513H146.455V110.077H144.768V106.513H137.225V104.974L144.588 94.4825H146.455V104.911H148.757V106.513ZM144.768 104.911V99.755C144.768 98.7436 144.803 97.6015 144.874 96.3284H144.789C144.45 97.0074 144.131 97.5696 143.834 98.0152L138.986 104.911H144.768Z" fill="white"/>
</g>
<defs>
<filter id="filter0_d" x="0" y="0" width="696" height="697.395" filterUnits="userSpaceOnUse" color-interpolation-filters="sRGB">
<feFlood flood-opacity="0" result="BackgroundImageFix"/>
<feColorMatrix in="SourceAlpha" type="matrix" values="0 0 0 0 0 0 0 0 0 0 0 0 0 0 0 0 0 0 127 0"/>
<feOffset dy="4"/>
<feGaussianBlur stdDeviation="2"/>
<feColorMatrix type="matrix" values="0 0 0 0 0 0 0 0 0 0 0 0 0 0 0 0 0 0 0.25 0"/>
<feBlend mode="normal" in2="BackgroundImageFix" result="effect1_dropShadow"/>
<feBlend mode="normal" in="SourceGraphic" in2="effect1_dropShadow" result="shape"/>
</filter>
</defs>
</svg>
