<svg width="81" height="91" viewBox="0 0 81 91" fill="none" xmlns="http://www.w3.org/2000/svg">
<path d="M76.8135 0.425293H4.81348C2.59125 0.425293 0.813477 2.42529 0.813477 4.92529V85.9253C0.813477 87.9253 2.59125 90.4253 4.81348 90.4253H76.8135C78.5913 90.4253 80.8135 87.9253 80.8135 85.9253V4.92529C80.8135 2.42529 78.5913 0.425293 76.8135 0.425293V0.425293Z" fill="#000405" fill-opacity="0.65"/>
<path d="M71.9246 80.4248H9.70239V10.4258H71.9246V80.4248Z" fill="white"/>
<path d="M36.3691 20.427H63.0358V30.4181H36.3691V20.427Z" fill="#007AFF" fill-opacity="0.75"/>
<path d="M36.3691 40.426H63.0358V50.4164H36.3691V40.426Z" fill="#007AFF" fill-opacity="0.75"/>
<path d="M36.3691 60.4263H63.0358V70.4166H36.3691V60.4263Z" fill="#007AFF" fill-opacity="0.75"/>
<path d="M18.5913 20.427H27.4802V30.4181H18.5913V20.427Z" fill="#007AFF" fill-opacity="0.75"/>
<path d="M18.5913 40.426H27.4802V50.4164H18.5913V40.426Z" fill="#007AFF" fill-opacity="0.75"/>
<path d="M18.5913 60.4263H27.4802V70.4166H18.5913V60.4263Z" fill="#007AFF" fill-opacity="0.75"/>
</svg>
