<svg width="358" height="356" viewBox="0 0 358 356" fill="none" xmlns="http://www.w3.org/2000/svg">
<g filter="url(#filter0_d)">
<path d="M354.298 175C354.298 215.487 340.207 254.722 314.427 286.019C288.647 317.316 252.773 338.739 212.916 346.637C173.06 354.536 131.687 348.422 95.8486 329.336C60.0097 310.251 31.9217 279.375 16.3705 241.97C0.819258 204.564 -1.233 162.944 10.5634 124.2C22.3598 85.4564 47.2749 51.9863 81.0636 29.4928C114.852 6.99936 155.424 -3.12576 195.865 0.842671C236.307 4.8111 274.116 22.6275 302.851 51.2563L178.649 175H354.298Z" fill="#109619"/>
<path d="M302.851 51.2563C331.225 79.5254 349.029 116.621 353.3 156.373C357.571 196.124 348.052 236.134 326.327 269.747C304.602 303.359 271.981 328.547 233.89 341.12C195.799 353.693 154.536 352.894 116.965 338.854C79.3938 324.814 47.7803 298.382 27.3838 263.953C6.98724 229.524 -0.962505 189.175 4.85711 149.62C10.6767 110.064 29.9148 73.6856 59.3708 46.5373C88.8267 19.389 126.725 3.10747 166.759 0.401367L178.649 175L302.851 51.2563Z" fill="#990099"/>
<path d="M337.086 99.4506C353.288 133.177 358.221 171.187 351.164 207.91C344.106 244.634 325.428 278.139 297.867 303.517C270.307 328.896 235.312 344.812 198.012 348.933C160.711 353.055 123.067 345.166 90.594 326.422C58.1214 307.677 32.5283 279.064 17.5652 244.774C2.60205 210.484 -0.944341 172.321 7.4457 135.877C15.8358 99.4327 35.7211 66.624 64.1877 42.2587C92.6543 17.8933 128.205 3.25234 165.631 0.481262L178.649 175L337.086 99.4506Z" fill="#0099C5"/>
<path d="M352.433 149.566C357.568 184.399 352.04 219.964 336.569 251.617C321.098 283.269 296.405 309.537 265.715 326.988C235.026 344.439 199.766 352.262 164.544 349.435C129.322 346.608 95.7739 333.262 68.2839 311.141C40.7939 289.02 20.6398 259.153 10.4546 225.441C0.269385 191.729 0.526675 155.741 11.1929 122.177C21.859 88.6131 42.4382 59.0348 70.2416 37.3064C98.0451 15.5779 131.78 2.70961 167.039 0.382668L178.649 175L352.433 149.566Z" fill="#3266CC"/>
<path d="M164.848 0.541026C134.385 2.9331 105.076 13.2015 79.8148 30.3319C54.5539 47.4623 34.2156 70.862 20.8088 98.2196C7.40195 125.577 1.39053 155.946 3.36829 186.327C5.34606 216.707 15.2446 246.048 32.0861 271.451C48.9277 296.854 72.1295 317.44 99.3997 331.176C126.67 344.912 157.065 351.322 187.583 349.773C218.1 348.225 247.685 338.771 273.413 322.346C299.142 305.921 320.124 283.093 334.288 256.117L178.649 175L164.848 0.541026Z" fill="#DC3812"/>
<path d="M166.233 0.43773C141.991 2.14923 118.369 8.85418 96.8617 20.1285C75.3541 31.4028 56.4289 47.0011 41.2829 65.9369C26.1369 84.8728 15.0998 106.734 8.8697 130.138C2.63954 153.542 1.35191 177.979 5.08823 201.904C8.82455 225.83 17.5035 248.722 30.5762 269.134C43.6489 289.546 60.8309 307.032 81.0353 320.488C101.24 333.944 124.027 343.077 147.956 347.308C171.885 351.539 196.435 350.776 220.053 345.069L178.649 175L166.233 0.43773Z" fill="#FE9900"/>
</g>
<defs>
<filter id="filter0_d" x="0.131527" y="-0.000244141" width="357.035" height="355.737" filterUnits="userSpaceOnUse" color-interpolation-filters="sRGB">
<feFlood flood-opacity="0" result="BackgroundImageFix"/>
<feColorMatrix in="SourceAlpha" type="matrix" values="0 0 0 0 0 0 0 0 0 0 0 0 0 0 0 0 0 0 127 0"/>
<feOffset dy="2.86823"/>
<feGaussianBlur stdDeviation="1.43411"/>
<feColorMatrix type="matrix" values="0 0 0 0 0 0 0 0 0 0 0 0 0 0 0 0 0 0 0.25 0"/>
<feBlend mode="normal" in2="BackgroundImageFix" result="effect1_dropShadow"/>
<feBlend mode="normal" in="SourceGraphic" in2="effect1_dropShadow" result="shape"/>
</filter>
</defs>
</svg>
