<svg width="80" height="100" viewBox="0 0 80 100" fill="none" xmlns="http://www.w3.org/2000/svg">
<path d="M72.7273 0H7.27273C3.27273 0 0 5.00556 0 11.1235V33.3148H7.27273V11.0122H72.7273V89.0434H7.27273V66.6852H0V88.9878C0 95.1057 3.27273 100 7.27273 100H72.7273C76.7273 100 80 95.1057 80 88.9878V11.1235C80 4.94994 76.7273 0 72.7273 0Z" fill="#000405" fill-opacity="0.65"/>
<path fill-rule="evenodd" clip-rule="evenodd" d="M36.4206 64.3237H40.4907L30.5393 31H26.9171L16.9658 64.3237H21.0359L23.217 56.6336H34.2005L36.4206 64.3237ZM24.6969 51.5006L28.7281 37.351L32.7592 51.5006H24.6969ZM38.4653 73.7581L54.2199 53.0191L56.9658 56.6337L38.4848 80.9873L28.5724 67.9389L31.3182 64.3243L38.4653 73.7581Z" fill="#007AFF" fill-opacity="0.75"/>
<path fill-rule="evenodd" clip-rule="evenodd" d="M70.3512 22.4794C71.0012 23.2913 71.0012 24.6028 70.3512 25.4147L67.0845 29.4949L60.8346 21.6884L64.1012 17.6081C64.4126 17.2183 64.8354 16.9993 65.2762 16.9993C65.7171 16.9993 66.1398 17.2183 66.4512 17.6081L70.3512 22.4794ZM59.168 23.7691L42.5013 44.595V52.4048H48.7513L65.418 31.5788L59.168 23.7691ZM47.3679 48.2398H45.8346V46.3238L59.168 29.6623L60.7013 31.5784L47.3679 48.2398Z" fill="#000405" fill-opacity="0.65"/>
</svg>
