<svg width="688" height="240" viewBox="0 0 688 240" fill="none" xmlns="http://www.w3.org/2000/svg">
<rect x="372.849" y="0.125" width="315.026" height="239.75" fill="white" stroke="#3E4146" stroke-width="0.25"/>
<path d="M434.848 194.958L426.848 183.708C425.948 183.808 425.014 183.858 424.048 183.858H414.648V194.958H410.948V159.958H424.048C428.514 159.958 432.014 161.025 434.548 163.158C437.081 165.291 438.348 168.225 438.348 171.958C438.348 174.691 437.648 177.008 436.248 178.908C434.881 180.775 432.914 182.125 430.348 182.958L438.898 194.958H434.848ZM423.948 180.708C427.414 180.708 430.064 179.941 431.898 178.408C433.731 176.875 434.648 174.725 434.648 171.958C434.648 169.125 433.731 166.958 431.898 165.458C430.064 163.925 427.414 163.158 423.948 163.158H414.648V180.708H423.948ZM469.23 182.908H447.23C447.43 185.641 448.48 187.858 450.38 189.558C452.28 191.225 454.68 192.058 457.58 192.058C459.214 192.058 460.714 191.775 462.08 191.208C463.447 190.608 464.63 189.741 465.63 188.608L467.63 190.908C466.464 192.308 464.997 193.375 463.23 194.108C461.497 194.841 459.58 195.208 457.48 195.208C454.78 195.208 452.38 194.641 450.28 193.508C448.214 192.341 446.597 190.741 445.43 188.708C444.264 186.675 443.68 184.375 443.68 181.808C443.68 179.241 444.23 176.941 445.33 174.908C446.464 172.875 447.997 171.291 449.93 170.158C451.897 169.025 454.097 168.458 456.53 168.458C458.964 168.458 461.147 169.025 463.08 170.158C465.014 171.291 466.53 172.875 467.63 174.908C468.73 176.908 469.28 179.208 469.28 181.808L469.23 182.908ZM456.53 171.508C453.997 171.508 451.864 172.325 450.13 173.958C448.43 175.558 447.464 177.658 447.23 180.258H465.88C465.647 177.658 464.664 175.558 462.93 173.958C461.23 172.325 459.097 171.508 456.53 171.508ZM500.856 168.658V191.758C500.856 196.225 499.756 199.525 497.556 201.658C495.389 203.825 492.106 204.908 487.706 204.908C485.273 204.908 482.956 204.541 480.756 203.808C478.589 203.108 476.823 202.125 475.456 200.858L477.256 198.158C478.523 199.291 480.056 200.175 481.856 200.808C483.689 201.441 485.606 201.758 487.606 201.758C490.939 201.758 493.389 200.975 494.956 199.408C496.523 197.875 497.306 195.475 497.306 192.208V188.858C496.206 190.525 494.756 191.791 492.956 192.658C491.189 193.525 489.223 193.958 487.056 193.958C484.589 193.958 482.339 193.425 480.306 192.358C478.306 191.258 476.723 189.741 475.556 187.808C474.423 185.841 473.856 183.625 473.856 181.158C473.856 178.691 474.423 176.491 475.556 174.558C476.723 172.625 478.306 171.125 480.306 170.058C482.306 168.991 484.556 168.458 487.056 168.458C489.289 168.458 491.306 168.908 493.106 169.808C494.906 170.708 496.356 172.008 497.456 173.708V168.658H500.856ZM487.406 190.808C489.306 190.808 491.023 190.408 492.556 189.608C494.089 188.775 495.273 187.625 496.106 186.158C496.973 184.691 497.406 183.025 497.406 181.158C497.406 179.291 496.973 177.641 496.106 176.208C495.273 174.741 494.089 173.608 492.556 172.808C491.056 171.975 489.339 171.558 487.406 171.558C485.506 171.558 483.789 171.958 482.256 172.758C480.756 173.558 479.573 174.691 478.706 176.158C477.873 177.625 477.456 179.291 477.456 181.158C477.456 183.025 477.873 184.691 478.706 186.158C479.573 187.625 480.756 188.775 482.256 189.608C483.789 190.408 485.506 190.808 487.406 190.808ZM534.483 168.658V194.958H531.083V190.158C530.15 191.758 528.867 193.008 527.233 193.908C525.6 194.775 523.733 195.208 521.633 195.208C518.2 195.208 515.483 194.258 513.483 192.358C511.517 190.425 510.533 187.608 510.533 183.908V168.658H514.083V183.558C514.083 186.325 514.767 188.425 516.133 189.858C517.5 191.291 519.45 192.008 521.983 192.008C524.75 192.008 526.933 191.175 528.533 189.508C530.133 187.808 530.933 185.458 530.933 182.458V168.658H534.483ZM544.426 157.858H547.976V194.958H544.426V157.858ZM567.054 168.458C570.487 168.458 573.12 169.325 574.954 171.058C576.787 172.758 577.704 175.291 577.704 178.658V194.958H574.304V190.858C573.504 192.225 572.32 193.291 570.754 194.058C569.22 194.825 567.387 195.208 565.254 195.208C562.32 195.208 559.987 194.508 558.254 193.108C556.52 191.708 555.654 189.858 555.654 187.558C555.654 185.325 556.454 183.525 558.054 182.158C559.687 180.791 562.27 180.108 565.804 180.108H574.154V178.508C574.154 176.241 573.52 174.525 572.254 173.358C570.987 172.158 569.137 171.558 566.704 171.558C565.037 171.558 563.437 171.841 561.904 172.408C560.37 172.941 559.054 173.691 557.954 174.658L556.354 172.008C557.687 170.875 559.287 170.008 561.154 169.408C563.02 168.775 564.987 168.458 567.054 168.458ZM565.804 192.408C567.804 192.408 569.52 191.958 570.954 191.058C572.387 190.125 573.454 188.791 574.154 187.058V182.758H565.904C561.404 182.758 559.154 184.325 559.154 187.458C559.154 188.991 559.737 190.208 560.904 191.108C562.07 191.975 563.704 192.408 565.804 192.408ZM590.746 173.808C591.579 172.041 592.813 170.708 594.446 169.808C596.113 168.908 598.163 168.458 600.596 168.458V171.908L599.746 171.858C596.979 171.858 594.813 172.708 593.246 174.408C591.679 176.108 590.896 178.491 590.896 181.558V194.958H587.346V168.658H590.746V173.808Z" fill="#333333"/>
<path d="M435.898 111.175H416.398L412.198 120.525H408.348L424.348 85.5254H427.998L443.998 120.525H440.098L435.898 111.175ZM434.548 108.175L426.148 89.3754L417.748 108.175H434.548ZM471.323 94.0254C474.757 94.0254 477.39 94.8921 479.223 96.6254C481.057 98.3254 481.973 100.859 481.973 104.225V120.525H478.573V116.425C477.773 117.792 476.59 118.859 475.023 119.625C473.49 120.392 471.657 120.775 469.523 120.775C466.59 120.775 464.257 120.075 462.523 118.675C460.79 117.275 459.923 115.425 459.923 113.125C459.923 110.892 460.723 109.092 462.323 107.725C463.957 106.359 466.54 105.675 470.073 105.675H478.423V104.075C478.423 101.809 477.79 100.092 476.523 98.9254C475.257 97.7254 473.407 97.1254 470.973 97.1254C469.307 97.1254 467.707 97.4087 466.173 97.9754C464.64 98.5087 463.323 99.2587 462.223 100.225L460.623 97.5754C461.957 96.4421 463.557 95.5754 465.423 94.9754C467.29 94.3421 469.257 94.0254 471.323 94.0254ZM470.073 117.975C472.073 117.975 473.79 117.525 475.223 116.625C476.657 115.692 477.723 114.359 478.423 112.625V108.325H470.173C465.673 108.325 463.423 109.892 463.423 113.025C463.423 114.559 464.007 115.775 465.173 116.675C466.34 117.542 467.973 117.975 470.073 117.975Z" fill="black"/>
<path d="M503.241 26.0391V47.0391H501.111V30.2391L492.861 44.3691H491.811L483.561 30.3291V47.0391H481.431V26.0391H483.261L492.381 41.6091L501.411 26.0391H503.241ZM516.084 47.1891C514.564 47.1891 513.194 46.8491 511.974 46.1691C510.754 45.4691 509.794 44.5091 509.094 43.2891C508.394 42.0691 508.044 40.6891 508.044 39.1491C508.044 37.6091 508.394 36.2291 509.094 35.0091C509.794 33.7891 510.754 32.8391 511.974 32.1591C513.194 31.4791 514.564 31.1391 516.084 31.1391C517.604 31.1391 518.974 31.4791 520.194 32.1591C521.414 32.8391 522.364 33.7891 523.044 35.0091C523.744 36.2291 524.094 37.6091 524.094 39.1491C524.094 40.6891 523.744 42.0691 523.044 43.2891C522.364 44.5091 521.414 45.4691 520.194 46.1691C518.974 46.8491 517.604 47.1891 516.084 47.1891ZM516.084 45.2991C517.204 45.2991 518.204 45.0491 519.084 44.5491C519.984 44.0291 520.684 43.2991 521.184 42.3591C521.684 41.4191 521.934 40.3491 521.934 39.1491C521.934 37.9491 521.684 36.8791 521.184 35.9391C520.684 34.9991 519.984 34.2791 519.084 33.7791C518.204 33.2591 517.204 32.9991 516.084 32.9991C514.964 32.9991 513.954 33.2591 513.054 33.7791C512.174 34.2791 511.474 34.9991 510.954 35.9391C510.454 36.8791 510.204 37.9491 510.204 39.1491C510.204 40.3491 510.454 41.4191 510.954 42.3591C511.474 43.2991 512.174 44.0291 513.054 44.5491C513.954 45.0491 514.964 45.2991 516.084 45.2991ZM536.482 31.1391C538.462 31.1391 540.032 31.7191 541.192 32.8791C542.372 34.0191 542.962 35.6891 542.962 37.8891V47.0391H540.832V38.0991C540.832 36.4591 540.422 35.2091 539.602 34.3491C538.782 33.4891 537.612 33.0591 536.092 33.0591C534.392 33.0591 533.042 33.5691 532.042 34.5891C531.062 35.5891 530.572 36.9791 530.572 38.7591V47.0391H528.442V31.2591H530.482V34.1691C531.062 33.2091 531.862 32.4691 532.882 31.9491C533.922 31.4091 535.122 31.1391 536.482 31.1391ZM557.055 46.0791C556.655 46.4391 556.155 46.7191 555.555 46.9191C554.975 47.0991 554.365 47.1891 553.725 47.1891C552.245 47.1891 551.105 46.7891 550.305 45.9891C549.505 45.1891 549.105 44.0591 549.105 42.5991V33.0591H546.285V31.2591H549.105V27.8091H551.235V31.2591H556.035V33.0591H551.235V42.4791C551.235 43.4191 551.465 44.1391 551.925 44.6391C552.405 45.1191 553.085 45.3591 553.965 45.3591C554.405 45.3591 554.825 45.2891 555.225 45.1491C555.645 45.0091 556.005 44.8091 556.305 44.5491L557.055 46.0791ZM565.163 47.1891C563.883 47.1891 562.653 47.0091 561.473 46.6491C560.313 46.2691 559.403 45.7991 558.743 45.2391L559.703 43.5591C560.363 44.0791 561.193 44.5091 562.193 44.8491C563.193 45.1691 564.233 45.3291 565.313 45.3291C566.753 45.3291 567.813 45.1091 568.493 44.6691C569.193 44.2091 569.543 43.5691 569.543 42.7491C569.543 42.1691 569.353 41.7191 568.973 41.3991C568.593 41.0591 568.113 40.8091 567.533 40.6491C566.953 40.4691 566.183 40.2991 565.223 40.1391C563.943 39.8991 562.913 39.6591 562.133 39.4191C561.353 39.1591 560.683 38.7291 560.123 38.1291C559.583 37.5291 559.313 36.6991 559.313 35.6391C559.313 34.3191 559.863 33.2391 560.963 32.3991C562.063 31.5591 563.593 31.1391 565.553 31.1391C566.573 31.1391 567.593 31.2791 568.613 31.5591C569.633 31.8191 570.473 32.1691 571.133 32.6091L570.203 34.3191C568.903 33.4191 567.353 32.9691 565.553 32.9691C564.193 32.9691 563.163 33.2091 562.463 33.6891C561.783 34.1691 561.443 34.7991 561.443 35.5791C561.443 36.1791 561.633 36.6591 562.013 37.0191C562.413 37.3791 562.903 37.6491 563.483 37.8291C564.063 37.9891 564.863 38.1591 565.883 38.3391C567.143 38.5791 568.153 38.8191 568.913 39.0591C569.673 39.2991 570.323 39.7091 570.863 40.2891C571.403 40.8691 571.673 41.6691 571.673 42.6891C571.673 44.0691 571.093 45.1691 569.933 45.9891C568.793 46.7891 567.203 47.1891 565.163 47.1891ZM589.35 39.8091H576.15C576.27 41.4491 576.9 42.7791 578.04 43.7991C579.18 44.7991 580.62 45.2991 582.36 45.2991C583.34 45.2991 584.24 45.1291 585.06 44.7891C585.88 44.4291 586.59 43.9091 587.19 43.2291L588.39 44.6091C587.69 45.4491 586.81 46.0891 585.75 46.5291C584.71 46.9691 583.56 47.1891 582.3 47.1891C580.68 47.1891 579.24 46.8491 577.98 46.1691C576.74 45.4691 575.77 44.5091 575.07 43.2891C574.37 42.0691 574.02 40.6891 574.02 39.1491C574.02 37.6091 574.35 36.2291 575.01 35.0091C575.69 33.7891 576.61 32.8391 577.77 32.1591C578.95 31.4791 580.27 31.1391 581.73 31.1391C583.19 31.1391 584.5 31.4791 585.66 32.1591C586.82 32.8391 587.73 33.7891 588.39 35.0091C589.05 36.2091 589.38 37.5891 589.38 39.1491L589.35 39.8091ZM581.73 32.9691C580.21 32.9691 578.93 33.4591 577.89 34.4391C576.87 35.3991 576.29 36.6591 576.15 38.2191H587.34C587.2 36.6591 586.61 35.3991 585.57 34.4391C584.55 33.4591 583.27 32.9691 581.73 32.9691ZM595.756 34.3491C596.256 33.2891 596.996 32.4891 597.976 31.9491C598.976 31.4091 600.206 31.1391 601.666 31.1391V33.2091L601.156 33.1791C599.496 33.1791 598.196 33.6891 597.256 34.7091C596.316 35.7291 595.846 37.1591 595.846 38.9991V47.0391H593.716V31.2591H595.756V34.3491ZM607.562 34.3491C608.062 33.2891 608.802 32.4891 609.782 31.9491C610.782 31.4091 612.012 31.1391 613.472 31.1391V33.2091L612.962 33.1791C611.302 33.1791 610.002 33.6891 609.062 34.7091C608.122 35.7291 607.652 37.1591 607.652 38.9991V47.0391H605.522V31.2591H607.562V34.3491ZM622.82 31.1391C624.88 31.1391 626.46 31.6591 627.56 32.6991C628.66 33.7191 629.21 35.2391 629.21 37.2591V47.0391H627.17V44.5791C626.69 45.3991 625.98 46.0391 625.04 46.4991C624.12 46.9591 623.02 47.1891 621.74 47.1891C619.98 47.1891 618.58 46.7691 617.54 45.9291C616.5 45.0891 615.98 43.9791 615.98 42.5991C615.98 41.2591 616.46 40.1791 617.42 39.3591C618.4 38.5391 619.95 38.1291 622.07 38.1291H627.08V37.1691C627.08 35.8091 626.7 34.7791 625.94 34.0791C625.18 33.3591 624.07 32.9991 622.61 32.9991C621.61 32.9991 620.65 33.1691 619.73 33.5091C618.81 33.8291 618.02 34.2791 617.36 34.8591L616.4 33.2691C617.2 32.5891 618.16 32.0691 619.28 31.7091C620.4 31.3291 621.58 31.1391 622.82 31.1391ZM622.07 45.5091C623.27 45.5091 624.3 45.2391 625.16 44.6991C626.02 44.1391 626.66 43.3391 627.08 42.2991V39.7191H622.13C619.43 39.7191 618.08 40.6591 618.08 42.5391C618.08 43.4591 618.43 44.1891 619.13 44.7291C619.83 45.2491 620.81 45.5091 622.07 45.5091ZM643.305 46.0791C642.905 46.4391 642.405 46.7191 641.805 46.9191C641.225 47.0991 640.615 47.1891 639.975 47.1891C638.495 47.1891 637.355 46.7891 636.555 45.9891C635.755 45.1891 635.355 44.0591 635.355 42.5991V33.0591H632.535V31.2591H635.355V27.8091H637.485V31.2591H642.285V33.0591H637.485V42.4791C637.485 43.4191 637.715 44.1391 638.175 44.6391C638.655 45.1191 639.335 45.3591 640.215 45.3591C640.655 45.3591 641.075 45.2891 641.475 45.1491C641.895 45.0091 642.255 44.8091 642.555 44.5491L643.305 46.0791Z" fill="#333333"/>
<rect x="0.125" y="0.125" width="315.026" height="239.75" fill="white" stroke="#3E4146" stroke-width="0.25"/>
<path d="M134.311 28.0928V49.0928H132.181V32.2928L123.931 46.4228H122.881L114.631 32.3828V49.0928H112.501V28.0928H114.331L123.451 43.6628L132.481 28.0928H134.311ZM147.153 49.2428C145.633 49.2428 144.263 48.9028 143.043 48.2228C141.823 47.5228 140.863 46.5628 140.163 45.3428C139.463 44.1228 139.113 42.7428 139.113 41.2028C139.113 39.6628 139.463 38.2828 140.163 37.0628C140.863 35.8428 141.823 34.8928 143.043 34.2128C144.263 33.5328 145.633 33.1928 147.153 33.1928C148.673 33.1928 150.043 33.5328 151.263 34.2128C152.483 34.8928 153.433 35.8428 154.113 37.0628C154.813 38.2828 155.163 39.6628 155.163 41.2028C155.163 42.7428 154.813 44.1228 154.113 45.3428C153.433 46.5628 152.483 47.5228 151.263 48.2228C150.043 48.9028 148.673 49.2428 147.153 49.2428ZM147.153 47.3528C148.273 47.3528 149.273 47.1028 150.153 46.6028C151.053 46.0828 151.753 45.3528 152.253 44.4128C152.753 43.4728 153.003 42.4028 153.003 41.2028C153.003 40.0028 152.753 38.9328 152.253 37.9928C151.753 37.0528 151.053 36.3328 150.153 35.8328C149.273 35.3128 148.273 35.0528 147.153 35.0528C146.033 35.0528 145.023 35.3128 144.123 35.8328C143.243 36.3328 142.543 37.0528 142.023 37.9928C141.523 38.9328 141.273 40.0028 141.273 41.2028C141.273 42.4028 141.523 43.4728 142.023 44.4128C142.543 45.3528 143.243 46.0828 144.123 46.6028C145.023 47.1028 146.033 47.3528 147.153 47.3528ZM167.552 33.1928C169.532 33.1928 171.102 33.7728 172.262 34.9328C173.442 36.0728 174.032 37.7428 174.032 39.9428V49.0928H171.902V40.1528C171.902 38.5128 171.492 37.2628 170.672 36.4028C169.852 35.5428 168.682 35.1128 167.162 35.1128C165.462 35.1128 164.112 35.6228 163.112 36.6428C162.132 37.6428 161.642 39.0328 161.642 40.8128V49.0928H159.512V33.3128H161.552V36.2228C162.132 35.2628 162.932 34.5228 163.952 34.0028C164.992 33.4628 166.192 33.1928 167.552 33.1928ZM188.124 48.1328C187.724 48.4928 187.224 48.7728 186.624 48.9728C186.044 49.1528 185.434 49.2428 184.794 49.2428C183.314 49.2428 182.174 48.8428 181.374 48.0428C180.574 47.2428 180.174 46.1128 180.174 44.6528V35.1128H177.354V33.3128H180.174V29.8628H182.304V33.3128H187.104V35.1128H182.304V44.5328C182.304 45.4728 182.534 46.1928 182.994 46.6928C183.474 47.1728 184.154 47.4128 185.034 47.4128C185.474 47.4128 185.894 47.3428 186.294 47.2028C186.714 47.0628 187.074 46.8628 187.374 46.6028L188.124 48.1328ZM196.232 49.2428C194.952 49.2428 193.722 49.0628 192.542 48.7028C191.382 48.3228 190.472 47.8528 189.812 47.2928L190.772 45.6128C191.432 46.1328 192.262 46.5628 193.262 46.9028C194.262 47.2228 195.302 47.3828 196.382 47.3828C197.822 47.3828 198.882 47.1628 199.562 46.7228C200.262 46.2628 200.612 45.6228 200.612 44.8028C200.612 44.2228 200.422 43.7728 200.042 43.4528C199.662 43.1128 199.182 42.8628 198.602 42.7028C198.022 42.5228 197.252 42.3528 196.292 42.1928C195.012 41.9528 193.982 41.7128 193.202 41.4728C192.422 41.2128 191.752 40.7828 191.192 40.1828C190.652 39.5828 190.382 38.7528 190.382 37.6928C190.382 36.3728 190.932 35.2928 192.032 34.4528C193.132 33.6128 194.662 33.1928 196.622 33.1928C197.642 33.1928 198.662 33.3328 199.682 33.6128C200.702 33.8728 201.542 34.2228 202.202 34.6628L201.272 36.3728C199.972 35.4728 198.422 35.0228 196.622 35.0228C195.262 35.0228 194.232 35.2628 193.532 35.7428C192.852 36.2228 192.512 36.8528 192.512 37.6328C192.512 38.2328 192.702 38.7128 193.082 39.0728C193.482 39.4328 193.972 39.7028 194.552 39.8828C195.132 40.0428 195.932 40.2128 196.952 40.3928C198.212 40.6328 199.222 40.8728 199.982 41.1128C200.742 41.3528 201.392 41.7628 201.932 42.3428C202.472 42.9228 202.742 43.7228 202.742 44.7428C202.742 46.1228 202.162 47.2228 201.002 48.0428C199.862 48.8428 198.272 49.2428 196.232 49.2428ZM220.42 41.8628H207.22C207.34 43.5028 207.97 44.8328 209.11 45.8528C210.25 46.8528 211.69 47.3528 213.43 47.3528C214.41 47.3528 215.31 47.1828 216.13 46.8428C216.95 46.4828 217.66 45.9628 218.26 45.2828L219.46 46.6628C218.76 47.5028 217.88 48.1428 216.82 48.5828C215.78 49.0228 214.63 49.2428 213.37 49.2428C211.75 49.2428 210.31 48.9028 209.05 48.2228C207.81 47.5228 206.84 46.5628 206.14 45.3428C205.44 44.1228 205.09 42.7428 205.09 41.2028C205.09 39.6628 205.42 38.2828 206.08 37.0628C206.76 35.8428 207.68 34.8928 208.84 34.2128C210.02 33.5328 211.34 33.1928 212.8 33.1928C214.26 33.1928 215.57 33.5328 216.73 34.2128C217.89 34.8928 218.8 35.8428 219.46 37.0628C220.12 38.2628 220.45 39.6428 220.45 41.2028L220.42 41.8628ZM212.8 35.0228C211.28 35.0228 210 35.5128 208.96 36.4928C207.94 37.4528 207.36 38.7128 207.22 40.2728H218.41C218.27 38.7128 217.68 37.4528 216.64 36.4928C215.62 35.5128 214.34 35.0228 212.8 35.0228ZM226.825 36.4028C227.325 35.3428 228.065 34.5428 229.045 34.0028C230.045 33.4628 231.275 33.1928 232.735 33.1928V35.2628L232.225 35.2328C230.565 35.2328 229.265 35.7428 228.325 36.7628C227.385 37.7828 226.915 39.2128 226.915 41.0528V49.0928H224.785V33.3128H226.825V36.4028ZM238.632 36.4028C239.132 35.3428 239.872 34.5428 240.852 34.0028C241.852 33.4628 243.082 33.1928 244.542 33.1928V35.2628L244.032 35.2328C242.372 35.2328 241.072 35.7428 240.132 36.7628C239.192 37.7828 238.722 39.2128 238.722 41.0528V49.0928H236.592V33.3128H238.632V36.4028ZM253.889 33.1928C255.949 33.1928 257.529 33.7128 258.629 34.7528C259.729 35.7728 260.279 37.2928 260.279 39.3128V49.0928H258.239V46.6328C257.759 47.4528 257.049 48.0928 256.109 48.5528C255.189 49.0128 254.089 49.2428 252.809 49.2428C251.049 49.2428 249.649 48.8228 248.609 47.9828C247.569 47.1428 247.049 46.0328 247.049 44.6528C247.049 43.3128 247.529 42.2328 248.489 41.4128C249.469 40.5928 251.019 40.1828 253.139 40.1828H258.149V39.2228C258.149 37.8628 257.769 36.8328 257.009 36.1328C256.249 35.4128 255.139 35.0528 253.679 35.0528C252.679 35.0528 251.719 35.2228 250.799 35.5628C249.879 35.8828 249.089 36.3328 248.429 36.9128L247.469 35.3228C248.269 34.6428 249.229 34.1228 250.349 33.7628C251.469 33.3828 252.649 33.1928 253.889 33.1928ZM253.139 47.5628C254.339 47.5628 255.369 47.2928 256.229 46.7528C257.089 46.1928 257.729 45.3928 258.149 44.3528V41.7728H253.199C250.499 41.7728 249.149 42.7128 249.149 44.5928C249.149 45.5128 249.499 46.2428 250.199 46.7828C250.899 47.3028 251.879 47.5628 253.139 47.5628ZM274.374 48.1328C273.974 48.4928 273.474 48.7728 272.874 48.9728C272.294 49.1528 271.684 49.2428 271.044 49.2428C269.564 49.2428 268.424 48.8428 267.624 48.0428C266.824 47.2428 266.424 46.1128 266.424 44.6528V35.1128H263.604V33.3128H266.424V29.8628H268.554V33.3128H273.354V35.1128H268.554V44.5328C268.554 45.4728 268.784 46.1928 269.244 46.6928C269.724 47.1728 270.404 47.4128 271.284 47.4128C271.724 47.4128 272.144 47.3428 272.544 47.2028C272.964 47.0628 273.324 46.8628 273.624 46.6028L274.374 48.1328Z" fill="#333333"/>
<path d="M64.7699 176.758C66.7699 177.391 68.3366 178.458 69.4699 179.958C70.6033 181.425 71.1699 183.241 71.1699 185.408C71.1699 188.475 69.9699 190.841 67.5699 192.508C65.2033 194.141 61.7366 194.958 57.1699 194.958H39.0699V159.958H56.1699C60.4366 159.958 63.7033 160.775 65.9699 162.408C68.2699 164.041 69.4199 166.258 69.4199 169.058C69.4199 170.758 69.0033 172.275 68.1699 173.608C67.3699 174.941 66.2366 175.991 64.7699 176.758ZM47.1199 166.058V174.308H55.1699C57.1699 174.308 58.6866 173.958 59.7199 173.258C60.7533 172.558 61.2699 171.525 61.2699 170.158C61.2699 168.791 60.7533 167.775 59.7199 167.108C58.6866 166.408 57.1699 166.058 55.1699 166.058H47.1199ZM56.5699 188.858C58.7033 188.858 60.3033 188.508 61.3699 187.808C62.4699 187.108 63.0199 186.025 63.0199 184.558C63.0199 181.658 60.8699 180.208 56.5699 180.208H47.1199V188.858H56.5699ZM89.5523 195.358C86.719 195.358 84.169 194.775 81.9023 193.608C79.669 192.408 77.919 190.758 76.6523 188.658C75.3857 186.558 74.7523 184.175 74.7523 181.508C74.7523 178.841 75.3857 176.458 76.6523 174.358C77.919 172.258 79.669 170.625 81.9023 169.458C84.169 168.258 86.719 167.658 89.5523 167.658C92.3857 167.658 94.919 168.258 97.1523 169.458C99.3857 170.625 101.136 172.258 102.402 174.358C103.669 176.458 104.302 178.841 104.302 181.508C104.302 184.175 103.669 186.558 102.402 188.658C101.136 190.758 99.3857 192.408 97.1523 193.608C94.919 194.775 92.3857 195.358 89.5523 195.358ZM89.5523 188.958C91.5523 188.958 93.1857 188.291 94.4523 186.958C95.7523 185.591 96.4023 183.775 96.4023 181.508C96.4023 179.241 95.7523 177.441 94.4523 176.108C93.1857 174.741 91.5523 174.058 89.5523 174.058C87.5523 174.058 85.9023 174.741 84.6023 176.108C83.3023 177.441 82.6523 179.241 82.6523 181.508C82.6523 183.775 83.3023 185.591 84.6023 186.958C85.9023 188.291 87.5523 188.958 89.5523 188.958ZM109.516 157.858H117.316V194.958H109.516V157.858ZM151.955 157.858V194.958H144.505V191.858C142.572 194.191 139.772 195.358 136.105 195.358C133.572 195.358 131.272 194.791 129.205 193.658C127.172 192.525 125.572 190.908 124.405 188.808C123.238 186.708 122.655 184.275 122.655 181.508C122.655 178.741 123.238 176.308 124.405 174.208C125.572 172.108 127.172 170.491 129.205 169.358C131.272 168.225 133.572 167.658 136.105 167.658C139.538 167.658 142.222 168.741 144.155 170.908V157.858H151.955ZM137.455 188.958C139.422 188.958 141.055 188.291 142.355 186.958C143.655 185.591 144.305 183.775 144.305 181.508C144.305 179.241 143.655 177.441 142.355 176.108C141.055 174.741 139.422 174.058 137.455 174.058C135.455 174.058 133.805 174.741 132.505 176.108C131.205 177.441 130.555 179.241 130.555 181.508C130.555 183.775 131.205 185.591 132.505 186.958C133.805 188.291 135.455 188.958 137.455 188.958Z" fill="#333333"/>
<path d="M62.7128 112.025H46.4628L43.3628 119.525H35.0628L50.6628 84.5254H58.6628L74.3128 119.525H65.8128L62.7128 112.025ZM60.1628 105.875L54.6128 92.4754L49.0628 105.875H60.1628ZM102.404 92.2254C106.571 92.2254 109.771 93.2254 112.004 95.2254C114.237 97.1921 115.354 100.175 115.354 104.175V119.525H108.054V116.175C106.587 118.675 103.854 119.925 99.8542 119.925C97.7875 119.925 95.9875 119.575 94.4542 118.875C92.9542 118.175 91.8042 117.209 91.0042 115.975C90.2042 114.742 89.8042 113.342 89.8042 111.775C89.8042 109.275 90.7375 107.309 92.6042 105.875C94.5042 104.442 97.4208 103.725 101.354 103.725H107.554C107.554 102.025 107.037 100.725 106.004 99.8254C104.971 98.8921 103.421 98.4254 101.354 98.4254C99.9208 98.4254 98.5042 98.6587 97.1042 99.1254C95.7375 99.5587 94.5708 100.159 93.6042 100.925L90.8042 95.4754C92.2708 94.4421 94.0208 93.6421 96.0542 93.0754C98.1208 92.5087 100.237 92.2254 102.404 92.2254ZM101.804 114.675C103.137 114.675 104.321 114.375 105.354 113.775C106.387 113.142 107.121 112.225 107.554 111.025V108.275H102.204C99.0042 108.275 97.4042 109.325 97.4042 111.425C97.4042 112.425 97.7875 113.225 98.5542 113.825C99.3542 114.392 100.437 114.675 101.804 114.675Z" fill="black"/>
</svg>
