<svg width="449" height="123" viewBox="0 0 449 123" fill="none" xmlns="http://www.w3.org/2000/svg">
<path d="M345.44 61.3719C345.44 31.7196 368.517 7.68164 396.985 7.68164C425.452 7.68164 448.529 31.7196 448.529 61.3719C448.529 91.0242 425.452 115.062 396.985 115.062C368.517 115.062 345.44 91.0242 345.44 61.3719Z" fill="#2E2882"/>
<path fill-rule="evenodd" clip-rule="evenodd" d="M429.629 43.5127L416.699 54.1683L397.844 42.1869L410.929 30.9475L429.629 43.5127ZM384.758 30.9476L397.843 42.187L378.988 54.1684L378.988 54.1683L378.988 54.1684L366.058 43.5129L384.758 30.9476ZM378.988 54.1684L378.988 54.1684L397.843 66.1502L416.699 54.1688L429.629 64.825L410.929 77.3902L397.844 66.1504L384.758 77.3904L366.058 64.8252L378.988 54.1684ZM411.006 79.7754L397.882 68.5684L384.759 79.7754L379.142 76.0022V80.2321L397.882 91.7967L416.622 80.2321V76.0022L411.006 79.7754Z" fill="#FEB0A5"/>
<path d="M177.449 61.3309C177.449 31.6786 200.526 7.64062 228.994 7.64062C257.461 7.64062 280.538 31.6786 280.538 61.3309C280.538 90.9832 257.461 115.021 228.994 115.021C200.526 115.021 177.449 90.9832 177.449 61.3309Z" fill="#1899E2"/>
<path d="M250.984 59.2855C251.078 58.7238 251.137 58.1482 251.137 57.5599C251.137 52.0611 246.857 47.6043 241.579 47.6043C240.43 47.6043 239.328 47.827 238.304 48.2164C235.192 43.191 229.783 39.8547 223.615 39.8547C213.96 39.8547 206.135 48.0063 206.135 58.0627C206.135 58.5347 206.168 58.9983 206.203 59.462C201.531 60.6833 198.067 65.0742 198.067 70.3181C198.067 76.506 202.883 81.523 208.824 81.523H249.163C255.104 81.523 259.92 76.506 259.92 70.3181C259.92 64.7787 256.056 60.1889 250.984 59.2855Z" fill="white"/>
<g filter="url(#filter0_d)">
<path fill-rule="evenodd" clip-rule="evenodd" d="M24.2752 115.018L58.5523 45.7656C58.5523 45.7656 48.6978 25.3508 43.6028 15.1994C42.9293 13.8575 41.9787 11.6715 41.1097 10.0988C40.3809 8.77987 39.9141 7.73059 39.9141 7.73059C39.9141 7.73059 39.8073 7.62045 39.7534 7.73059C28.3444 31.0557 5.52545 78.0365 5.52545 78.0365L24.2752 115.018Z" fill="#009B58"/>
</g>
<g filter="url(#filter1_d)">
<path fill-rule="evenodd" clip-rule="evenodd" d="M24.3009 114.963H92.3314L111.958 78.3772L42.4702 78.293L24.3009 114.963Z" fill="#2872F1"/>
</g>
<g filter="url(#filter2_d)">
<path fill-rule="evenodd" clip-rule="evenodd" d="M39.9139 7.68115H77.6285L112.003 78.366H74.4479L39.9139 7.68115Z" fill="#FCCD38"/>
</g>
<path fill-rule="evenodd" clip-rule="evenodd" d="M23.5436 107.395L56.5718 70.7529H41.6576L23.5436 107.395Z" fill="#296CDE" fill-opacity="0.6"/>
<path fill-rule="evenodd" clip-rule="evenodd" d="M77.0962 70.721C88.4939 70.7686 111.284 70.721 111.284 70.721L66.3141 55.4971L73.717 70.721C73.717 70.721 75.9635 70.7163 77.0962 70.721Z" fill="#EDC537" fill-opacity="0.6"/>
<path fill-rule="evenodd" clip-rule="evenodd" d="M57.9112 38.4149L50.2144 52.9469L39.147 0.0620117L57.9112 38.4149Z" fill="#009557" fill-opacity="0.7"/>
<defs>
<filter id="filter0_d" x="0.850858" y="5.34434" width="62.376" height="116.685" filterUnits="userSpaceOnUse" color-interpolation-filters="sRGB">
<feFlood flood-opacity="0" result="BackgroundImageFix"/>
<feColorMatrix in="SourceAlpha" type="matrix" values="0 0 0 0 0 0 0 0 0 0 0 0 0 0 0 0 0 0 127 0"/>
<feOffset dy="2.3373"/>
<feGaussianBlur stdDeviation="2.3373"/>
<feColorMatrix type="matrix" values="0 0 0 0 0 0 0 0 0 0 0 0 0 0 0 0 0 0 0.5 0"/>
<feBlend mode="normal" in2="BackgroundImageFix" result="effect1_dropShadow"/>
<feBlend mode="normal" in="SourceGraphic" in2="effect1_dropShadow" result="shape"/>
</filter>
<filter id="filter1_d" x="19.6263" y="75.9557" width="97.0062" height="46.0196" filterUnits="userSpaceOnUse" color-interpolation-filters="sRGB">
<feFlood flood-opacity="0" result="BackgroundImageFix"/>
<feColorMatrix in="SourceAlpha" type="matrix" values="0 0 0 0 0 0 0 0 0 0 0 0 0 0 0 0 0 0 127 0"/>
<feOffset dy="2.3373"/>
<feGaussianBlur stdDeviation="2.3373"/>
<feColorMatrix type="matrix" values="0 0 0 0 0 0 0 0 0 0 0 0 0 0 0 0 0 0 0.5 0"/>
<feBlend mode="normal" in2="BackgroundImageFix" result="effect1_dropShadow"/>
<feBlend mode="normal" in="SourceGraphic" in2="effect1_dropShadow" result="shape"/>
</filter>
<filter id="filter2_d" x="35.2393" y="5.34386" width="81.4381" height="80.0341" filterUnits="userSpaceOnUse" color-interpolation-filters="sRGB">
<feFlood flood-opacity="0" result="BackgroundImageFix"/>
<feColorMatrix in="SourceAlpha" type="matrix" values="0 0 0 0 0 0 0 0 0 0 0 0 0 0 0 0 0 0 127 0"/>
<feOffset dy="2.3373"/>
<feGaussianBlur stdDeviation="2.3373"/>
<feColorMatrix type="matrix" values="0 0 0 0 0 0 0 0 0 0 0 0 0 0 0 0 0 0 0.5 0"/>
<feBlend mode="normal" in2="BackgroundImageFix" result="effect1_dropShadow"/>
<feBlend mode="normal" in="SourceGraphic" in2="effect1_dropShadow" result="shape"/>
</filter>
</defs>
</svg>
