<svg width="645" height="160" viewBox="0 0 645 160" fill="none" xmlns="http://www.w3.org/2000/svg">
<path d="M510 80.0269C510 41.3521 540.115 10 577.265 10C614.414 10 644.529 41.3521 644.529 80.0269C644.529 118.702 614.414 150.054 577.265 150.054C540.115 150.054 510 118.702 510 80.0269Z" fill="#2E2882"/>
<path fill-rule="evenodd" clip-rule="evenodd" d="M619.865 56.7337L602.991 70.6315L578.386 55.0044L595.462 40.3452L619.865 56.7337ZM561.309 40.3453L578.385 55.0045L553.78 70.6314L553.78 70.6312L553.78 70.6314L536.906 56.7338L561.309 40.3453ZM553.78 70.6314L553.78 70.6316L553.78 70.6314L578.385 86.2588L602.992 70.6318L619.865 84.5303L595.462 100.919L578.386 86.2591L561.309 100.919L536.906 84.5306L553.78 70.6314ZM595.562 104.03L578.436 89.413L561.31 104.03L553.981 99.1086V104.626L578.436 119.709L602.891 104.626V99.1086L595.562 104.03Z" fill="#FEB0A5"/>
<path d="M260.978 79.9732C260.978 41.2984 291.093 9.94629 328.242 9.94629C365.391 9.94629 395.507 41.2984 395.507 79.9732C395.507 118.648 365.391 150 328.242 150C291.093 150 260.978 118.648 260.978 79.9732Z" fill="#1899E2"/>
<path d="M356.939 77.3057C357.062 76.5731 357.139 75.8223 357.139 75.0551C357.139 67.8831 351.554 62.0703 344.666 62.0703C343.166 62.0703 341.729 62.3607 340.392 62.8686C336.331 56.3141 329.272 51.9626 321.223 51.9626C308.624 51.9626 298.412 62.5946 298.412 75.7109C298.412 76.3265 298.456 76.9312 298.501 77.5359C292.404 79.1288 287.883 84.8558 287.883 91.6953C287.883 99.766 294.169 106.31 301.921 106.31H354.563C362.315 106.31 368.601 99.766 368.601 91.6953C368.601 84.4703 363.558 78.484 356.939 77.3057Z" fill="white"/>
<g filter="url(#filter0_d)">
<path fill-rule="evenodd" clip-rule="evenodd" d="M31.4681 149.996L76.1989 59.6719C76.1989 59.6719 63.3391 33.0455 56.6902 19.8052C55.8113 18.055 54.5708 15.2039 53.4367 13.1526C52.4857 11.4324 51.8766 10.0638 51.8766 10.0638C51.8766 10.0638 51.7371 9.92019 51.6668 10.0638C36.7783 40.4863 7 101.762 7 101.762L31.4681 149.996Z" fill="#009B58"/>
</g>
<g filter="url(#filter1_d)">
<path fill-rule="evenodd" clip-rule="evenodd" d="M31.5016 149.926H120.28L145.892 102.208L55.2123 102.098L31.5016 149.926Z" fill="#2872F1"/>
</g>
<g filter="url(#filter2_d)">
<path fill-rule="evenodd" clip-rule="evenodd" d="M51.8763 10H101.093L145.951 102.193H96.9425L51.8763 10Z" fill="#FCCD38"/>
</g>
<path fill-rule="evenodd" clip-rule="evenodd" d="M30.5133 140.054L73.6145 92.2625H54.1518L30.5133 140.054Z" fill="#296CDE" fill-opacity="0.6"/>
<path fill-rule="evenodd" clip-rule="evenodd" d="M100.398 92.2207C115.272 92.2828 145.013 92.2207 145.013 92.2207L86.3279 72.3645L95.9885 92.2207C95.9885 92.2207 98.9202 92.2146 100.398 92.2207Z" fill="#EDC537" fill-opacity="0.6"/>
<path fill-rule="evenodd" clip-rule="evenodd" d="M75.3623 50.0847L65.3181 69.0385L50.8754 0.0620117L75.3623 50.0847Z" fill="#009557" fill-opacity="0.7"/>
<defs>
<filter id="filter0_d" x="0.899748" y="6.94987" width="81.3994" height="152.196" filterUnits="userSpaceOnUse" color-interpolation-filters="sRGB">
<feFlood flood-opacity="0" result="BackgroundImageFix"/>
<feColorMatrix in="SourceAlpha" type="matrix" values="0 0 0 0 0 0 0 0 0 0 0 0 0 0 0 0 0 0 127 0"/>
<feOffset dy="3.05013"/>
<feGaussianBlur stdDeviation="3.05013"/>
<feColorMatrix type="matrix" values="0 0 0 0 0 0 0 0 0 0 0 0 0 0 0 0 0 0 0.5 0"/>
<feBlend mode="normal" in2="BackgroundImageFix" result="effect1_dropShadow"/>
<feBlend mode="normal" in="SourceGraphic" in2="effect1_dropShadow" result="shape"/>
</filter>
<filter id="filter1_d" x="25.4014" y="99.0475" width="126.591" height="60.0288" filterUnits="userSpaceOnUse" color-interpolation-filters="sRGB">
<feFlood flood-opacity="0" result="BackgroundImageFix"/>
<feColorMatrix in="SourceAlpha" type="matrix" values="0 0 0 0 0 0 0 0 0 0 0 0 0 0 0 0 0 0 127 0"/>
<feOffset dy="3.05013"/>
<feGaussianBlur stdDeviation="3.05013"/>
<feColorMatrix type="matrix" values="0 0 0 0 0 0 0 0 0 0 0 0 0 0 0 0 0 0 0.5 0"/>
<feBlend mode="normal" in2="BackgroundImageFix" result="effect1_dropShadow"/>
<feBlend mode="normal" in="SourceGraphic" in2="effect1_dropShadow" result="shape"/>
</filter>
<filter id="filter2_d" x="45.776" y="6.94987" width="106.275" height="104.393" filterUnits="userSpaceOnUse" color-interpolation-filters="sRGB">
<feFlood flood-opacity="0" result="BackgroundImageFix"/>
<feColorMatrix in="SourceAlpha" type="matrix" values="0 0 0 0 0 0 0 0 0 0 0 0 0 0 0 0 0 0 127 0"/>
<feOffset dy="3.05013"/>
<feGaussianBlur stdDeviation="3.05013"/>
<feColorMatrix type="matrix" values="0 0 0 0 0 0 0 0 0 0 0 0 0 0 0 0 0 0 0.5 0"/>
<feBlend mode="normal" in2="BackgroundImageFix" result="effect1_dropShadow"/>
<feBlend mode="normal" in="SourceGraphic" in2="effect1_dropShadow" result="shape"/>
</filter>
</defs>
</svg>
