<svg width="80" height="90" viewBox="0 0 80 90" fill="none" xmlns="http://www.w3.org/2000/svg">
<path fill-rule="evenodd" clip-rule="evenodd" d="M53.562 56.6038H57.1755L80 82.3328L73.1847 90L50.3145 64.3225V60.2573L49.0795 58.8165C43.8651 63.8593 37.0955 66.8954 29.7313 66.8954C13.3105 66.8954 0 51.9211 0 33.4477C0 14.9743 13.3105 0 29.7313 0C46.1521 0 59.4626 14.9743 59.4626 33.4477C59.4626 41.7324 56.7639 49.3482 52.2813 55.2144L53.562 56.6038ZM9.82593 33.4478C9.82593 46.2608 19.0198 56.6038 30.4091 56.6038C41.7985 56.6038 50.9923 46.2608 50.9923 33.4478C50.9923 20.6349 41.7985 10.2918 30.4091 10.2918C19.0198 10.2918 9.82593 20.6349 9.82593 33.4478Z" fill="#000405" fill-opacity="0.65"/>
<path fill-rule="evenodd" clip-rule="evenodd" d="M30.4092 18.7405C27.1853 18.7405 24.5741 21.6771 24.5741 25.3027C24.5741 28.9283 27.1853 31.8648 30.4092 31.8648C33.6331 31.8648 36.2443 28.9283 36.2443 25.3027C36.2443 21.6771 33.6331 18.7405 30.4092 18.7405ZM33.3267 25.2935C33.3267 23.4908 32.0138 22.0159 30.4091 22.0159C28.8045 22.0159 27.4916 23.4908 27.4916 25.2935C27.4916 27.0963 28.8045 28.5712 30.4091 28.5712C32.0138 28.5712 33.3267 27.0963 33.3267 25.2935ZM39.1619 40.0655C38.8702 38.9023 34.348 36.7889 30.4093 36.7889C26.4706 36.7889 21.9484 38.9023 21.6566 40.0819V41.7039H39.1619V40.0655ZM18.739 40.066C18.739 35.7032 26.5143 33.5053 30.4092 33.5053C34.3041 33.5053 42.0794 35.7032 42.0794 40.066V44.9866H18.739V40.066Z" fill="#007AFF" fill-opacity="0.75"/>
</svg>
