<svg width="557" height="160" viewBox="0 0 557 160" fill="none" xmlns="http://www.w3.org/2000/svg">
<g filter="url(#filter0_d)">
<ellipse cx="476.928" cy="76.5" rx="76.928" ry="76.5" fill="#4CD964"/>
<path d="M553.474 76.5C553.474 118.536 519.205 152.617 476.928 152.617C434.651 152.617 400.382 118.536 400.382 76.5C400.382 34.4635 434.651 0.3825 476.928 0.3825C519.205 0.3825 553.474 34.4635 553.474 76.5Z" stroke="#000405" stroke-opacity="0.25" stroke-width="0.765"/>
<path d="M433.366 80.5391H429.816L428.74 86.0525H426.817L427.893 80.5391H424.679V78.6968H428.242L429.17 73.9365H425.701V72.0673H429.533L430.636 66.4733H432.559L431.456 72.0673H435.006L436.109 66.4733H438.045L436.943 72.0673H439.686V73.9365H436.58L435.652 78.6968H438.677V80.5391H435.302L434.226 86.0525H432.29L433.366 80.5391ZM430.165 78.6968H433.715L434.643 73.9365H431.093L430.165 78.6968ZM457.328 83.4841C456.665 84.4343 455.737 85.147 454.545 85.6222C453.361 86.0883 451.981 86.3214 450.403 86.3214C448.807 86.3214 447.391 85.9494 446.154 85.2053C444.916 84.4523 443.957 83.3855 443.276 82.0049C442.603 80.6243 442.258 79.0241 442.24 77.2042V75.4964C442.24 72.547 442.926 70.2609 444.298 68.6383C445.678 67.0157 447.615 66.2043 450.107 66.2043C452.151 66.2043 453.796 66.7288 455.042 67.7777C456.288 68.8176 457.05 70.2968 457.328 72.2153H454.746C454.262 69.6244 452.72 68.329 450.121 68.329C448.39 68.329 447.077 68.9386 446.18 70.1578C445.293 71.3681 444.845 73.1252 444.836 75.4292V77.0294C444.836 79.2258 445.338 80.9739 446.342 82.2738C447.346 83.5647 448.704 84.2102 450.416 84.2102C451.385 84.2102 452.232 84.1026 452.958 83.8875C453.684 83.6723 454.285 83.3092 454.76 82.7983V78.401H450.228V76.3032H457.328V83.4841ZM469.376 78.1321H464.777V86.0525H462.182V66.4733H468.664C470.869 66.4733 472.563 66.9753 473.747 67.9794C474.939 68.9834 475.535 70.4447 475.535 72.3632C475.535 73.5824 475.204 74.6447 474.54 75.5502C473.886 76.4556 472.971 77.1325 471.797 77.5807L476.396 85.8911V86.0525H473.626L469.376 78.1321ZM464.777 76.0208H468.744C470.026 76.0208 471.044 75.6891 471.797 75.0257C472.559 74.3623 472.94 73.4748 472.94 72.3632C472.94 71.1529 472.577 70.2251 471.851 69.5796C471.134 68.9341 470.094 68.6069 468.731 68.5979H464.777V76.0208ZM490.784 77.0025H482.299V83.9413H492.156V86.0525H479.717V66.4733H492.021V68.5979H482.299V74.8913H490.784V77.0025ZM506.987 77.0025H498.502V83.9413H508.359V86.0525H495.92V66.4733H508.225V68.5979H498.502V74.8913H506.987V77.0025ZM527.171 86.0525H524.576L514.719 70.9647V86.0525H512.124V66.4733H514.719L524.603 81.6283V66.4733H527.171V86.0525Z" fill="white"/>
</g>
<g filter="url(#filter1_d)">
<ellipse cx="278.928" cy="76.5" rx="76.928" ry="76.5" fill="#00BAFF"/>
<path d="M355.474 76.5C355.474 118.536 321.205 152.617 278.928 152.617C236.651 152.617 202.382 118.536 202.382 76.5C202.382 34.4635 236.651 0.3825 278.928 0.3825C321.205 0.3825 355.474 34.4635 355.474 76.5Z" stroke="#000405" stroke-opacity="0.25" stroke-width="0.765"/>
<path d="M246.52 80.5391H242.97L241.894 86.0525H239.971L241.047 80.5391H237.833V78.6968H241.397L242.325 73.9365H238.855V72.0673H242.688L243.79 66.4733H245.713L244.611 72.0673H248.161L249.263 66.4733H251.2L250.097 72.0673H252.84V73.9365H249.734L248.806 78.6968H251.832V80.5391H248.456L247.381 86.0525H245.444L246.52 80.5391ZM243.32 78.6968H246.87L247.798 73.9365H244.247L243.32 78.6968ZM256.027 86.0525V66.4733H262.428C264.552 66.4733 266.148 66.9126 267.215 67.7911C268.291 68.6697 268.829 69.9696 268.829 71.6908C268.829 72.6052 268.569 73.4166 268.049 74.1248C267.529 74.824 266.82 75.3664 265.924 75.7519C266.982 76.0477 267.815 76.6125 268.425 77.4462C269.044 78.271 269.353 79.2571 269.353 80.4046C269.353 82.1618 268.784 83.5423 267.645 84.5464C266.507 85.5505 264.897 86.0525 262.818 86.0525H256.027ZM258.609 76.8949V83.9413H262.871C264.073 83.9413 265.018 83.632 265.709 83.0134C266.408 82.3859 266.758 81.5252 266.758 80.4315C266.758 78.0738 265.476 76.8949 262.912 76.8949H258.609ZM258.609 74.824H262.508C263.638 74.824 264.539 74.5416 265.211 73.9769C265.893 73.4121 266.233 72.6456 266.233 71.6774C266.233 70.6016 265.919 69.8217 265.292 69.3375C264.664 68.8445 263.71 68.5979 262.428 68.5979H258.609V74.824ZM276.332 83.9413H285.61V86.0525H273.736V66.4733H276.332V83.9413ZM302.163 66.4733V79.7861C302.154 81.6328 301.572 83.1434 300.415 84.3178C299.268 85.4922 297.708 86.1511 295.735 86.2945L295.05 86.3214C292.907 86.3214 291.199 85.7432 289.926 84.5867C288.653 83.4303 288.008 81.839 287.99 79.813V66.4733H290.545V79.7323C290.545 81.1487 290.935 82.2514 291.715 83.0403C292.495 83.8202 293.606 84.2102 295.05 84.2102C296.511 84.2102 297.627 83.8202 298.398 83.0403C299.178 82.2604 299.568 81.1622 299.568 79.7457V66.4733H302.163ZM317.856 77.0025H309.37V83.9413H319.227V86.0525H306.789V66.4733H319.093V68.5979H309.37V74.8913H317.856V77.0025Z" fill="white"/>
</g>
<g filter="url(#filter2_d)">
<ellipse cx="80.928" cy="76.5" rx="76.928" ry="76.5" fill="#FF697B"/>
<path d="M157.474 76.5C157.474 118.536 123.205 152.617 80.928 152.617C38.6511 152.617 4.3825 118.536 4.3825 76.5C4.3825 34.4635 38.6511 0.3825 80.928 0.3825C123.205 0.3825 157.474 34.4635 157.474 76.5Z" stroke="#000405" stroke-opacity="0.25" stroke-width="0.765"/>
<path d="M55.8282 80.5391H52.2781L51.2023 86.0525H49.2794L50.3551 80.5391H47.1412V78.6968H50.7048L51.6326 73.9365H48.1632V72.0673H51.9957L53.0984 66.4733H55.0213L53.9187 72.0673H57.4687L58.5714 66.4733H60.5078L59.4051 72.0673H62.1484V73.9365H59.0421L58.1142 78.6968H61.1398V80.5391H57.7646L56.6888 86.0525H54.7524L55.8282 80.5391ZM52.6277 78.6968H56.1778L57.1057 73.9365H53.5556L52.6277 78.6968ZM72.5157 78.1321H67.9167V86.0525H65.3214V66.4733H71.803C74.0083 66.4733 75.7027 66.9753 76.886 67.9794C78.0784 68.9834 78.6745 70.4447 78.6745 72.3632C78.6745 73.5824 78.3428 74.6447 77.6794 75.5502C77.025 76.4556 76.1106 77.1325 74.9362 77.5807L79.5351 85.8911V86.0525H76.765L72.5157 78.1321ZM67.9167 76.0208H71.8837C73.1656 76.0208 74.1831 75.6891 74.9362 75.0257C75.6982 74.3623 76.0792 73.4748 76.0792 72.3632C76.0792 71.1529 75.7161 70.2251 74.99 69.5796C74.2728 68.9341 73.2329 68.6069 71.8702 68.5979H67.9167V76.0208ZM93.9232 77.0025H85.438V83.9413H95.2948V86.0525H82.8561V66.4733H95.1603V68.5979H85.438V74.8913H93.9232V77.0025ZM99.0595 86.0525V66.4733H104.586C106.29 66.4733 107.796 66.8498 109.105 67.6029C110.413 68.3559 111.422 69.4272 112.13 70.8167C112.847 72.2063 113.21 73.802 113.219 75.604V76.8546C113.219 78.7013 112.861 80.3195 112.144 81.709C111.435 83.0986 110.418 84.1654 109.091 84.9095C107.773 85.6536 106.236 86.0346 104.479 86.0525H99.0595ZM101.641 68.5979V83.9413H104.358C106.348 83.9413 107.894 83.3227 108.997 82.0855C110.109 80.8484 110.664 79.0868 110.664 76.8008V75.6578C110.664 73.4345 110.14 71.7087 109.091 70.4806C108.051 69.2434 106.572 68.6159 104.654 68.5979H101.641Z" fill="white"/>
</g>
<defs>
<filter id="filter0_d" x="396.94" y="0" width="159.976" height="159.12" filterUnits="userSpaceOnUse" color-interpolation-filters="sRGB">
<feFlood flood-opacity="0" result="BackgroundImageFix"/>
<feColorMatrix in="SourceAlpha" type="matrix" values="0 0 0 0 0 0 0 0 0 0 0 0 0 0 0 0 0 0 127 0"/>
<feOffset dy="3.06"/>
<feGaussianBlur stdDeviation="1.53"/>
<feColorMatrix type="matrix" values="0 0 0 0 0 0 0 0 0 0 0 0 0 0 0 0 0 0 0.25 0"/>
<feBlend mode="normal" in2="BackgroundImageFix" result="effect1_dropShadow"/>
<feBlend mode="normal" in="SourceGraphic" in2="effect1_dropShadow" result="shape"/>
</filter>
<filter id="filter1_d" x="198.94" y="0" width="159.976" height="159.12" filterUnits="userSpaceOnUse" color-interpolation-filters="sRGB">
<feFlood flood-opacity="0" result="BackgroundImageFix"/>
<feColorMatrix in="SourceAlpha" type="matrix" values="0 0 0 0 0 0 0 0 0 0 0 0 0 0 0 0 0 0 127 0"/>
<feOffset dy="3.06"/>
<feGaussianBlur stdDeviation="1.53"/>
<feColorMatrix type="matrix" values="0 0 0 0 0 0 0 0 0 0 0 0 0 0 0 0 0 0 0.25 0"/>
<feBlend mode="normal" in2="BackgroundImageFix" result="effect1_dropShadow"/>
<feBlend mode="normal" in="SourceGraphic" in2="effect1_dropShadow" result="shape"/>
</filter>
<filter id="filter2_d" x="0.940002" y="0" width="159.976" height="159.12" filterUnits="userSpaceOnUse" color-interpolation-filters="sRGB">
<feFlood flood-opacity="0" result="BackgroundImageFix"/>
<feColorMatrix in="SourceAlpha" type="matrix" values="0 0 0 0 0 0 0 0 0 0 0 0 0 0 0 0 0 0 127 0"/>
<feOffset dy="3.06"/>
<feGaussianBlur stdDeviation="1.53"/>
<feColorMatrix type="matrix" values="0 0 0 0 0 0 0 0 0 0 0 0 0 0 0 0 0 0 0.25 0"/>
<feBlend mode="normal" in2="BackgroundImageFix" result="effect1_dropShadow"/>
<feBlend mode="normal" in="SourceGraphic" in2="effect1_dropShadow" result="shape"/>
</filter>
</defs>
</svg>
