<svg width="618" height="177" viewBox="0 0 618 177" fill="none" xmlns="http://www.w3.org/2000/svg">
<g filter="url(#filter0_d)">
<ellipse cx="528.68" cy="85.0001" rx="85.3202" ry="84.9999" fill="#4CD964"/>
<path d="M480.386 89.5991H476.441L475.246 95.7251H473.11L474.305 89.5991H470.734V87.5522H474.693L475.724 82.2629H471.869V80.186H476.128L477.353 73.9704H479.489L478.264 80.186H482.209L483.434 73.9704H485.586L484.36 80.186H487.408V82.2629H483.957L482.926 87.5522H486.288V89.5991H482.538L481.342 95.7251H479.191L480.386 89.5991ZM476.83 87.5522H480.774L481.805 82.2629H477.861L476.83 87.5522ZM507.011 92.8713C506.274 93.9271 505.243 94.719 503.918 95.247C502.603 95.7649 501.069 96.0239 499.316 96.0239C497.543 96.0239 495.969 95.6105 494.595 94.7838C493.22 93.9471 492.154 92.7617 491.397 91.2277C490.65 89.6938 490.267 87.9157 490.247 85.8937V83.9961C490.247 80.719 491.009 78.1789 492.533 76.376C494.067 74.5731 496.218 73.6716 498.987 73.6716C501.259 73.6716 503.086 74.2543 504.471 75.4197C505.855 76.5752 506.702 78.2188 507.011 80.3504H504.142C503.604 77.4717 501.891 76.0323 499.002 76.0323C497.08 76.0323 495.621 76.7097 494.625 78.0644C493.638 79.4091 493.14 81.3614 493.13 83.9214V85.6994C493.13 88.1398 493.688 90.0822 494.804 91.5266C495.919 92.9609 497.429 93.6781 499.331 93.6781C500.407 93.6781 501.348 93.5586 502.155 93.3195C502.962 93.0805 503.629 92.6771 504.157 92.1093V87.2234H499.122V84.8926H507.011V92.8713ZM520.398 86.9246H515.288V95.7251H512.404V73.9704H519.606C522.056 73.9704 523.939 74.5282 525.254 75.6439C526.579 76.7595 527.241 78.3831 527.241 80.5148C527.241 81.8694 526.872 83.0498 526.135 84.0559C525.408 85.0619 524.392 85.814 523.087 86.312L528.197 95.5458V95.7251H525.119L520.398 86.9246ZM515.288 84.5788H519.696C521.12 84.5788 522.251 84.2103 523.087 83.4732C523.934 82.736 524.357 81.7499 524.357 80.5148C524.357 79.17 523.954 78.1391 523.147 77.4219C522.35 76.7047 521.195 76.3411 519.681 76.3312H515.288V84.5788ZM544.184 85.6695H534.756V93.3793H545.708V95.7251H531.887V73.9704H545.559V76.3312H534.756V83.3237H544.184V85.6695ZM562.188 85.6695H552.76V93.3793H563.712V95.7251H549.891V73.9704H563.562V76.3312H552.76V83.3237H562.188V85.6695ZM584.614 95.7251H581.73L570.778 78.9608V95.7251H567.895V73.9704H570.778L581.76 90.8094V73.9704H584.614V95.7251Z" fill="white"/>
</g>
<g filter="url(#filter1_d)">
<ellipse cx="304.288" cy="84.9999" rx="85.3202" ry="84.9999" fill="#00BAFF"/>
<path d="M268.365 89.599H264.42L263.225 95.725H261.089L262.284 89.599H258.713V87.552H262.672L263.703 82.2628H259.848V80.1859H264.107L265.332 73.9703H267.469L266.243 80.1859H270.188L271.413 73.9703H273.565L272.339 80.1859H275.387V82.2628H271.936L270.905 87.552H274.267V89.599H270.517L269.321 95.725H267.17L268.365 89.599ZM264.809 87.552H268.753L269.784 82.2628H265.84L264.809 87.552ZM278.928 95.725V73.9703H286.04C288.401 73.9703 290.174 74.4584 291.359 75.4346C292.555 76.4107 293.152 77.8551 293.152 79.7676C293.152 80.7836 292.863 81.685 292.286 82.472C291.708 83.2489 290.921 83.8515 289.925 84.2799C291.1 84.6086 292.027 85.2361 292.704 86.1625C293.391 87.0789 293.735 88.1746 293.735 89.4496C293.735 91.4019 293.102 92.9359 291.837 94.0515C290.572 95.1672 288.784 95.725 286.473 95.725H278.928ZM281.797 85.5499V93.3792H286.533C287.868 93.3792 288.919 93.0355 289.686 92.3482C290.463 91.651 290.851 90.6947 290.851 89.4795C290.851 86.8597 289.427 85.5499 286.578 85.5499H281.797ZM281.797 83.2489H286.13C287.385 83.2489 288.386 82.9351 289.133 82.3076C289.89 81.6801 290.268 80.8284 290.268 79.7526C290.268 78.5573 289.92 77.6907 289.223 77.1528C288.525 76.605 287.464 76.331 286.04 76.331H281.797V83.2489ZM301.489 93.3792H311.798V95.725H298.605V73.9703H301.489V93.3792ZM330.191 73.9703V88.7623C330.181 90.8142 329.533 92.4927 328.248 93.7975C326.973 95.1024 325.24 95.8345 323.049 95.9939L322.287 96.0238C319.906 96.0238 318.008 95.3813 316.594 94.0964C315.18 92.8114 314.462 91.0433 314.442 88.7922V73.9703H317.281V88.7025C317.281 90.2763 317.715 91.5015 318.581 92.3781C319.448 93.2447 320.683 93.678 322.287 93.678C323.91 93.678 325.15 93.2447 326.007 92.3781C326.874 91.5115 327.307 90.2913 327.307 88.7175V73.9703H330.191ZM347.627 85.6694H338.199V93.3792H349.151V95.725H335.33V73.9703H349.001V76.331H338.199V83.3236H347.627V85.6694Z" fill="white"/>
</g>
<g filter="url(#filter2_d)">
<ellipse cx="89.3202" cy="85.0001" rx="85.3202" ry="84.9999" fill="#FF697B"/>
<path d="M61.5029 89.5991H57.5584L56.3631 95.7251H54.2265L55.4218 89.5991H51.8508V87.5522H55.8103L56.8412 82.2629H52.9863V80.186H57.2446L58.4698 73.9704H60.6064L59.3812 80.186H63.3258L64.551 73.9704H66.7025L65.4773 80.186H68.5254V82.2629H65.0739L64.043 87.5522H67.4048V89.5991H63.6545L62.4592 95.7251H60.3076L61.5029 89.5991ZM57.9469 87.5522H61.8914L62.9224 82.2629H58.9778L57.9469 87.5522ZM80.0446 86.9246H74.9346V95.7251H72.051V73.9704H79.2527C81.7031 73.9704 83.5857 74.5282 84.9006 75.6439C86.2254 76.7595 86.8878 78.3831 86.8878 80.5148C86.8878 81.8694 86.5192 83.0498 85.7821 84.0559C85.0549 85.0619 84.0389 85.814 82.7341 86.312L87.844 95.5458V95.7251H84.7661L80.0446 86.9246ZM74.9346 84.5788H79.3424C80.7668 84.5788 81.8973 84.2103 82.7341 83.4732C83.5807 82.736 84.0041 81.7499 84.0041 80.5148C84.0041 79.17 83.6007 78.1391 82.7938 77.4219C81.9969 76.7047 80.8415 76.3411 79.3274 76.3312H74.9346V84.5788ZM103.831 85.6695H94.4027V93.3793H105.355V95.7251H91.5339V73.9704H105.205V76.3312H94.4027V83.3237H103.831V85.6695ZM109.538 95.7251V73.9704H115.679C117.571 73.9704 119.245 74.3888 120.699 75.2255C122.153 76.0622 123.274 77.2525 124.061 78.7965C124.858 80.3404 125.261 82.1135 125.271 84.1156V85.5052C125.271 87.5571 124.873 89.3551 124.076 90.899C123.289 92.443 122.158 93.6283 120.684 94.4551C119.22 95.2818 117.511 95.7052 115.559 95.7251H109.538ZM112.406 76.3312V93.3793H115.425C117.636 93.3793 119.354 92.692 120.579 91.3174C121.815 89.9428 122.432 87.9855 122.432 85.4454V84.1754C122.432 81.7051 121.849 79.7876 120.684 78.423C119.529 77.0484 117.885 76.3511 115.753 76.3312H112.406Z" fill="white"/>
</g>
<defs>
<filter id="filter0_d" x="439.96" y="0.00012207" width="177.44" height="176.8" filterUnits="userSpaceOnUse" color-interpolation-filters="sRGB">
<feFlood flood-opacity="0" result="BackgroundImageFix"/>
<feColorMatrix in="SourceAlpha" type="matrix" values="0 0 0 0 0 0 0 0 0 0 0 0 0 0 0 0 0 0 127 0"/>
<feOffset dy="3.4"/>
<feGaussianBlur stdDeviation="1.7"/>
<feColorMatrix type="matrix" values="0 0 0 0 0 0 0 0 0 0 0 0 0 0 0 0 0 0 0.25 0"/>
<feBlend mode="normal" in2="BackgroundImageFix" result="effect1_dropShadow"/>
<feBlend mode="normal" in="SourceGraphic" in2="effect1_dropShadow" result="shape"/>
</filter>
<filter id="filter1_d" x="215.568" y="0" width="177.44" height="176.8" filterUnits="userSpaceOnUse" color-interpolation-filters="sRGB">
<feFlood flood-opacity="0" result="BackgroundImageFix"/>
<feColorMatrix in="SourceAlpha" type="matrix" values="0 0 0 0 0 0 0 0 0 0 0 0 0 0 0 0 0 0 127 0"/>
<feOffset dy="3.4"/>
<feGaussianBlur stdDeviation="1.7"/>
<feColorMatrix type="matrix" values="0 0 0 0 0 0 0 0 0 0 0 0 0 0 0 0 0 0 0.25 0"/>
<feBlend mode="normal" in2="BackgroundImageFix" result="effect1_dropShadow"/>
<feBlend mode="normal" in="SourceGraphic" in2="effect1_dropShadow" result="shape"/>
</filter>
<filter id="filter2_d" x="0.600002" y="0.00012207" width="177.44" height="176.8" filterUnits="userSpaceOnUse" color-interpolation-filters="sRGB">
<feFlood flood-opacity="0" result="BackgroundImageFix"/>
<feColorMatrix in="SourceAlpha" type="matrix" values="0 0 0 0 0 0 0 0 0 0 0 0 0 0 0 0 0 0 127 0"/>
<feOffset dy="3.4"/>
<feGaussianBlur stdDeviation="1.7"/>
<feColorMatrix type="matrix" values="0 0 0 0 0 0 0 0 0 0 0 0 0 0 0 0 0 0 0.25 0"/>
<feBlend mode="normal" in2="BackgroundImageFix" result="effect1_dropShadow"/>
<feBlend mode="normal" in="SourceGraphic" in2="effect1_dropShadow" result="shape"/>
</filter>
</defs>
</svg>
